<svg width="24" height="24" viewBox="0 0 24 24" fill="none" xmlns="http://www.w3.org/2000/svg">
<path d="M12 10.5C12.4142 10.5 12.75 10.8358 12.75 11.25V12.6213L14.1213 12.6213C14.5355 12.6213 14.8713 12.9571 14.8713 13.3713C14.8713 13.7855 14.5355 14.1213 14.1213 14.1213L12.75 14.1213V15.4926C12.75 15.9069 12.4142 16.2426 12 16.2426C11.5858 16.2426 11.25 15.9069 11.25 15.4926V14.1213L9.87866 14.1213C9.46445 14.1213 9.12866 13.7855 9.12866 13.3713C9.12866 12.9571 9.46445 12.6213 9.87866 12.6213H11.25L11.25 11.25C11.25 10.8358 11.5858 10.5 12 10.5Z" fill="#FEFEFE"/>
<path fill-rule="evenodd" clip-rule="evenodd" d="M11.0951 7.5C11.1944 7.49988 11.2896 7.46039 11.3598 7.39016L13.8107 4.93934C14.092 4.65804 14.4735 4.5 14.8713 4.5L20.625 4.5C20.8321 4.5 21 4.66789 21 4.875V18C21 18.8284 20.3284 19.5 19.5 19.5L4.5 19.5C3.67157 19.5 3 18.8284 3 18L3 9C3 8.17157 3.67157 7.5 4.5 7.5H11.0951ZM4.5 18V9L17.25 9C17.6642 9 18 8.66421 18 8.25C18 7.83579 17.6642 7.5 17.25 7.5H13.3713L14.8713 6L19.5 6V18H4.5Z" fill="#FEFEFE"/>
</svg>
