<svg width="24" height="24" viewBox="0 0 24 24" fill="none" xmlns="http://www.w3.org/2000/svg">
<path d="M15.4905 8.13796C16.1526 7.41303 16.5591 6.49115 16.6476 5.51335C16.6733 5.31172 16.6525 5.10689 16.5868 4.91453C16.5211 4.72218 16.4123 4.5474 16.2687 4.40358C16.1251 4.25976 15.9504 4.15071 15.7582 4.08478C15.5659 4.01884 15.3611 3.99777 15.1594 4.02318C14.5529 4.07081 13.964 4.24936 13.4331 4.54652C12.9023 4.84368 12.4422 5.2524 12.0845 5.7445C11.8581 5.17786 11.5378 4.65338 11.1373 4.19305C11.013 4.06983 10.8452 4.00049 10.6701 4C10.4951 3.99952 10.3269 4.06794 10.2019 4.19047C10.077 4.313 10.0052 4.47979 10.0022 4.65479C9.99926 4.82979 10.0653 4.99893 10.186 5.12565C10.8464 5.94796 11.2328 6.95635 11.2911 8.00939H9.66441C8.11956 8.0566 6.65634 8.71399 5.59511 9.83765C4.53388 10.9613 3.96111 12.4597 4.00218 14.0047C3.89493 17.7351 7.7619 21.1811 11.1632 19.5903C11.423 19.4251 11.7249 19.3385 12.0328 19.3407C12.3406 19.343 12.6412 19.434 12.8985 19.603C13.3334 19.8544 13.8252 19.991 14.3274 20C21.1647 19.8108 22.0321 9.72938 15.4905 8.13796ZM13.4768 6.12287C13.9935 5.67102 14.6423 5.39813 15.3266 5.34481C15.272 6.02772 14.9995 6.67502 14.5493 7.19137C14.0321 7.64294 13.3832 7.91578 12.6987 7.96942C12.7528 7.28627 13.0257 6.63875 13.4768 6.12287ZM14.3274 18.6677C14.0339 18.6564 13.7483 18.569 13.4987 18.4139C13.0415 18.1498 12.5239 18.0078 11.9959 18.0016C11.496 18.0132 11.0068 18.1489 10.5724 18.3966C8.00238 19.5077 5.26786 16.7632 5.33447 14.0047C5.29339 12.813 5.72581 11.6535 6.5372 10.7797C7.34858 9.90588 8.47292 9.38887 9.66441 9.34168H14.3274C20.0563 9.55552 20.0563 18.4559 14.3274 18.6677Z" fill="#81654D"/>
</svg>
