<svg width="30" height="30" viewBox="0 0 30 30" fill="none" xmlns="http://www.w3.org/2000/svg">
<path d="M5 13.125C5 12.7798 5.27982 12.5 5.625 12.5H9.375C9.72018 12.5 10 12.7798 10 13.125V16.875C10 17.2202 9.72018 17.5 9.375 17.5H5.625C5.27982 17.5 5 17.2202 5 16.875V13.125Z" fill="#695243"/>
<path d="M13.125 12.5C12.7798 12.5 12.5 12.7798 12.5 13.125V16.875C12.5 17.2202 12.7798 17.5 13.125 17.5H16.875C17.2202 17.5 17.5 17.2202 17.5 16.875V13.125C17.5 12.7798 17.2202 12.5 16.875 12.5H13.125Z" fill="#695243"/>
<path d="M20 13.125C20 12.7798 20.2798 12.5 20.625 12.5H24.375C24.7202 12.5 25 12.7798 25 13.125V16.875C25 17.2202 24.7202 17.5 24.375 17.5H20.625C20.2798 17.5 20 17.2202 20 16.875V13.125Z" fill="#695243"/>
<path d="M5.625 20C5.27982 20 5 20.2798 5 20.625V24.375C5 24.7202 5.27982 25 5.625 25H9.375C9.72018 25 10 24.7202 10 24.375V20.625C10 20.2798 9.72018 20 9.375 20H5.625Z" fill="#695243"/>
<path d="M12.5 20.625C12.5 20.2798 12.7798 20 13.125 20H16.875C17.2202 20 17.5 20.2798 17.5 20.625V24.375C17.5 24.7202 17.2202 25 16.875 25H13.125C12.7798 25 12.5 24.7202 12.5 24.375V20.625Z" fill="#695243"/>
<path fill-rule="evenodd" clip-rule="evenodd" d="M23.75 1.25C23.75 0.559644 23.1904 0 22.5 0C21.8096 0 21.25 0.559644 21.25 1.25V2.5H16.25V1.25C16.25 0.559644 15.6904 0 15 0C14.3096 0 13.75 0.559644 13.75 1.25V2.5H8.75V1.25C8.75 0.559644 8.19036 0 7.5 0C6.80964 0 6.25 0.559644 6.25 1.25V2.5H2.5C1.11929 2.5 0 3.61929 0 5V27.5C0 28.8807 1.11929 30 2.5 30H27.5C28.8807 30 30 28.8807 30 27.5V5C30 3.61929 28.8807 2.5 27.5 2.5H23.75V1.25ZM2.5 10L2.5 27.5H27.5V10H2.5Z" fill="#695243"/>
</svg>
