<svg width="24" height="24" viewBox="0 0 24 24" fill="none" xmlns="http://www.w3.org/2000/svg">
<path fill-rule="evenodd" clip-rule="evenodd" d="M3.75 5.625C3.75 5.21079 4.08579 4.875 4.5 4.875H5.41442C6.10272 4.875 6.70269 5.34345 6.86963 6.0112L7.33558 7.875H18.5394C19.5153 7.875 20.2313 8.79208 19.9946 9.7388L18.8696 14.2388C18.7027 14.9066 18.1027 15.375 17.4144 15.375H8.83558C8.14728 15.375 7.54731 14.9066 7.38037 14.2388L5.41442 6.375H4.5C4.08579 6.375 3.75 6.03921 3.75 5.625ZM7.71058 9.375L8.83558 13.875H17.4144L18.5394 9.375H7.71058Z" fill="#6C757D"/>
<path d="M9 18.75C9.62132 18.75 10.125 18.2463 10.125 17.625C10.125 17.0037 9.62132 16.5 9 16.5C8.37868 16.5 7.875 17.0037 7.875 17.625C7.875 18.2463 8.37868 18.75 9 18.75Z" fill="#6C757D"/>
<path d="M17.25 18.75C17.8713 18.75 18.375 18.2463 18.375 17.625C18.375 17.0037 17.8713 16.5 17.25 16.5C16.6287 16.5 16.125 17.0037 16.125 17.625C16.125 18.2463 16.6287 18.75 17.25 18.75Z" fill="#6C757D"/>
</svg>
