<svg width="40" height="40" viewBox="0 0 40 40" fill="none" xmlns="http://www.w3.org/2000/svg">
<path fill-rule="evenodd" clip-rule="evenodd" d="M6.25 9.375C6.25 8.68464 6.80964 8.125 7.5 8.125H9.02403C10.1712 8.125 11.1712 8.90574 11.4494 10.0187L12.226 13.125H30.899C32.5255 13.125 33.7189 14.6535 33.3244 16.2313L31.4494 23.7313C31.1712 24.8443 30.1712 25.625 29.024 25.625H14.726C13.5788 25.625 12.5788 24.8443 12.3006 23.7313L9.02403 10.625H7.5C6.80964 10.625 6.25 10.0654 6.25 9.375ZM12.851 15.625L14.726 23.125H29.024L30.899 15.625H12.851Z" fill="#81654D"/>
<path d="M15 31.25C16.0355 31.25 16.875 30.4105 16.875 29.375C16.875 28.3395 16.0355 27.5 15 27.5C13.9645 27.5 13.125 28.3395 13.125 29.375C13.125 30.4105 13.9645 31.25 15 31.25Z" fill="#81654D"/>
<path d="M28.75 31.25C29.7855 31.25 30.625 30.4105 30.625 29.375C30.625 28.3395 29.7855 27.5 28.75 27.5C27.7145 27.5 26.875 28.3395 26.875 29.375C26.875 30.4105 27.7145 31.25 28.75 31.25Z" fill="#81654D"/>
</svg>
