<svg width="24" height="24" viewBox="0 0 24 24" fill="none" xmlns="http://www.w3.org/2000/svg">
<path fill-rule="evenodd" clip-rule="evenodd" d="M5.25 4.5C4.83579 4.5 4.5 4.83579 4.5 5.25V15C4.5 15.4142 4.83579 15.75 5.25 15.75H7.125C7.74632 15.75 8.25 16.2537 8.25 16.875V18.9741L11.3802 16.0526C11.5885 15.8581 11.8629 15.75 12.1478 15.75H18.75C19.1642 15.75 19.5 15.4142 19.5 15V5.25C19.5 4.83579 19.1642 4.5 18.75 4.5H5.25ZM3 5.25C3 4.00736 4.00736 3 5.25 3H18.75C19.9926 3 21 4.00736 21 5.25V15C21 16.2426 19.9926 17.25 18.75 17.25H12.2956L8.64261 20.6595C7.92349 21.3307 6.75 20.8207 6.75 19.837V17.25H5.25C4.00736 17.25 3 16.2426 3 15V5.25Z" fill="#695243"/>
</svg>
