<svg width="24" height="24" viewBox="0 0 24 24" fill="none" xmlns="http://www.w3.org/2000/svg">
<path d="M6.76948 16.4524L17.293 16.4444M11.9597 4C13.6646 4 15.0886 5.2 15.4353 6.80089C15.886 6.67891 16.3564 6.6469 16.8195 6.7067C17.2826 6.7665 17.7294 6.91693 18.1344 7.14941C18.5394 7.38188 18.8946 7.69185 19.1798 8.06161C19.465 8.43137 19.6746 8.85369 19.7966 9.30444C19.9186 9.7552 19.9506 10.2256 19.8908 10.6887C19.831 11.1518 19.6805 11.5986 19.4481 12.0036C19.2156 12.4086 18.9056 12.7638 18.5359 13.049C18.1661 13.3342 17.7438 13.5438 17.293 13.6658V20H6.62637V13.6658C6.17561 13.5437 5.75332 13.334 5.3836 13.0487C5.01388 12.7634 4.70398 12.4081 4.47159 12.003C4.23919 11.5979 4.08886 11.151 4.02917 10.6879C3.96948 10.2247 4.0016 9.75431 4.1237 9.30356C4.2458 8.8528 4.45549 8.43051 4.74079 8.06079C5.02609 7.69107 5.38142 7.38117 5.78649 7.14878C6.19156 6.91638 6.63844 6.76605 7.10161 6.70636C7.56478 6.64667 8.03517 6.67879 8.48592 6.80089C8.65822 6.00761 9.09678 5.29718 9.72872 4.78765C10.3607 4.27812 11.1479 4.00017 11.9597 4Z" stroke="#564538" stroke-width="1.5" stroke-linecap="round" stroke-linejoin="round"/>
</svg>
