<svg width="24" height="24" viewBox="0 0 24 24" fill="none" xmlns="http://www.w3.org/2000/svg">
<path fill-rule="evenodd" clip-rule="evenodd" d="M15.1852 4.2801C16.0638 3.40142 17.4885 3.40142 18.3671 4.2801L19.7195 5.63247C20.5982 6.51115 20.5982 7.93577 19.7195 8.81445L9.3655 19.1685L4.69852 20.7241C3.81904 21.0173 2.98234 20.1806 3.2755 19.3011L4.83116 14.6341L15.1852 4.2801ZM17.3065 5.34076C17.0136 5.04787 16.5387 5.04787 16.2458 5.34076L15.2316 6.35504L17.6446 8.76806L18.6588 7.75379C18.9517 7.46089 18.9517 6.98602 18.6588 6.69313L17.3065 5.34076ZM16.5839 9.82872L14.1709 7.4157L6.54734 15.0392L8.96036 17.4523L16.5839 9.82872ZM7.57194 18.1852L5.81444 16.4277L4.93569 19.0639L7.57194 18.1852Z" fill="#81654D"/>
</svg>
