<svg width="24" height="24" viewBox="0 0 24 24" fill="none" xmlns="http://www.w3.org/2000/svg">
<path fill-rule="evenodd" clip-rule="evenodd" d="M17.341 4.2801C16.4623 3.40142 15.0377 3.40142 14.159 4.2801L5.34448 13.0946L4.02566 17.0511C3.7325 17.9306 4.56921 18.7673 5.44869 18.4741L9.40514 17.1553L18.2197 8.34076C19.0984 7.46209 19.0984 6.03746 18.2197 5.15878L17.341 4.2801ZM15.2197 5.34076C15.5126 5.04787 15.9874 5.04787 16.2803 5.34076L17.159 6.21944C17.4519 6.51234 17.4519 6.98721 17.159 7.2801L16.5 7.93911L14.5607 5.99977L15.2197 5.34076ZM13.5 7.06043L15.4393 8.99977L9 15.4391L7.06066 13.4998L13.5 7.06043ZM6.32776 14.8882L7.61158 16.172L5.68586 16.8139L6.32776 14.8882Z" fill="#4C9B58"/>
<path d="M4.5 18.7498C4.08579 18.7498 3.75 19.0856 3.75 19.4998C3.75 19.914 4.08579 20.2498 4.5 20.2498L19.5 20.2498C19.9142 20.2498 20.25 19.914 20.25 19.4998C20.25 19.0856 19.9142 18.7498 19.5 18.7498L4.5 18.7498Z" fill="#4C9B58"/>
</svg>
