<svg width="24" height="24" viewBox="0 0 24 24" fill="none" xmlns="http://www.w3.org/2000/svg">
<path fill-rule="evenodd" clip-rule="evenodd" d="M5.25 6C4.00736 6 3 7.00736 3 8.25V15.75C3 16.9926 4.00736 18 5.25 18H18.75C19.9926 18 21 16.9926 21 15.75V8.25C21 7.00736 19.9926 6 18.75 6H5.25ZM5.11533 7.51206C5.15902 7.50414 5.20402 7.5 5.25 7.5H18.75C18.796 7.5 18.841 7.50414 18.8847 7.51206L12.7028 12.4576C12.2919 12.7863 11.7081 12.7863 11.2972 12.4576L5.11533 7.51206ZM4.53879 8.0113C4.51363 8.08628 4.5 8.16655 4.5 8.25V15.75C4.5 15.8071 4.50639 15.8628 4.5185 15.9163L8.64413 11.2956L4.53879 8.0113ZM5.0316 16.4677C5.10071 16.4887 5.17403 16.5 5.25 16.5H18.75C18.826 16.5 18.8993 16.4887 18.9684 16.4677L14.7694 11.7648L13.1713 13.0432C12.4865 13.5911 11.5135 13.5911 10.8287 13.0432L9.23064 11.7648L5.0316 16.4677ZM19.4815 15.9163C19.4936 15.8628 19.5 15.8071 19.5 15.75V8.25C19.5 8.16655 19.4864 8.08629 19.4612 8.01131L15.3559 11.2956L19.4815 15.9163Z" fill="#564538"/>
</svg>
