<svg width="24" height="24" viewBox="0 0 24 24" fill="none" xmlns="http://www.w3.org/2000/svg">
<path d="M17.6 5H6.4C5.2688 5 4.7032 5 4.352 5.3296C4 5.6592 4 6.1904 4 7.252V7.804C4 8.6336 4 9.0488 4.208 9.3928C4.416 9.7368 4.7944 9.9512 5.5536 10.3784L7.884 11.6904C8.3928 11.9768 8.648 12.12 8.8304 12.2784C9.2096 12.6072 9.4432 12.9944 9.5488 13.4704C9.6 13.6976 9.6 13.9648 9.6 14.4984V16.6344C9.6 17.3616 9.6 17.7256 9.8016 18.0088C10.0032 18.2928 10.3616 18.4328 11.0768 18.7128C12.58 19.3 13.3312 19.5936 13.8656 19.2592C14.4 18.9256 14.4 18.1616 14.4 16.6336V14.4976C14.4 13.9648 14.4 13.6976 14.4512 13.4696C14.5517 13.0033 14.8047 12.5839 15.1704 12.2776C15.352 12.12 15.6072 11.9768 16.116 11.6896L18.4464 10.3776C19.2048 9.9512 19.5848 9.7376 19.792 9.3936C20 9.0496 20 8.6336 20 7.8032V7.2512C20 6.1904 20 5.6592 19.648 5.3296C19.2976 5 18.732 5 17.6 5Z" stroke="#FEFEFE" stroke-width="1.5"/>
</svg>
