<svg width="24" height="24" viewBox="0 0 24 24" fill="none" xmlns="http://www.w3.org/2000/svg">
<path d="M8.1245 17.0625C8.1245 17.2448 8.05206 17.4197 7.92313 17.5486C7.7942 17.6776 7.61933 17.75 7.437 17.75C7.25466 17.75 7.07979 17.6776 6.95086 17.5486C6.82193 17.4197 6.7495 17.2448 6.7495 17.0625C6.7495 16.8802 6.82193 16.7053 6.95086 16.5764C7.07979 16.4474 7.25466 16.375 7.437 16.375C7.61933 16.375 7.7942 16.4474 7.92313 16.5764C8.05206 16.7053 8.1245 16.8802 8.1245 17.0625ZM20.3139 9.24219C20.1719 9.52706 19.9531 9.76655 19.6822 9.9336C19.4113 10.1006 19.099 10.1886 18.7807 10.1875H15.6739C15.6602 10.9169 15.6306 11.6113 15.5715 12.25H15.8245C16.1013 12.2445 16.3759 12.2999 16.6289 12.4123C16.8819 12.5247 17.107 12.6914 17.2884 12.9005C17.4698 13.1097 17.603 13.3562 17.6785 13.6225C17.754 13.8888 17.77 14.1685 17.7254 14.4417C17.6472 14.9768 17.3796 15.4661 16.9715 15.8208C16.5633 16.1755 16.0414 16.3721 15.5007 16.375H14.587C13.3495 19.0487 9.4995 20.5 6.74056 20.5C6.36534 20.4987 5.99435 20.4207 5.65042 20.2706C5.3065 20.1206 4.99692 19.9018 4.74073 19.6276C4.48454 19.3534 4.28717 19.0298 4.16076 18.6765C4.03435 18.3232 3.98157 17.9478 4.00568 17.5733C4.04235 15.7457 4.51143 13.9528 5.3745 12.3414V11.975C5.3789 10.7387 5.81544 9.54281 6.60854 8.5944C7.40165 7.64599 8.5014 7.00473 9.71743 6.78163C10.0253 6.72904 10.341 6.74444 10.6423 6.82675C10.9436 6.90905 11.2232 7.05626 11.4616 7.25806C11.7056 7.46309 11.9024 7.7185 12.0384 8.00676C12.1744 8.29502 12.2464 8.60929 12.2495 8.928C12.8889 8.86888 13.5839 8.83931 14.312 8.82556V5.71875C14.312 5.39956 14.4009 5.08667 14.5687 4.81515C14.7365 4.54363 14.9766 4.3242 15.2621 4.18145C15.5476 4.03871 15.8672 3.97828 16.1851 4.00695C16.503 4.03561 16.8066 4.15224 17.062 4.34375C17.6786 4.79237 18.1233 5.43839 18.3222 6.17456C19.0598 6.37359 19.7069 6.81932 20.1557 7.4375C20.3475 7.69375 20.4639 7.99847 20.4919 8.31732C20.5198 8.63617 20.4582 8.95649 20.3139 9.24219ZM7.01418 10.5594C8.17304 9.78707 9.49372 9.29102 10.8745 9.1095V8.95C10.8745 8.82773 10.8477 8.70695 10.7961 8.59613C10.7444 8.48532 10.6691 8.38716 10.5754 8.30856C10.4918 8.23528 10.3928 8.18163 10.2858 8.15153C10.1787 8.12144 10.0663 8.11566 9.95668 8.13463C9.29827 8.24949 8.68096 8.53334 8.16517 8.95839C7.64937 9.38343 7.25278 9.93512 7.01418 10.5594ZM10.0378 18.575C9.80193 17.5753 9.29208 16.6612 8.56549 15.9352C7.83891 15.2093 6.92436 14.7002 5.9245 14.4651C5.61561 15.5072 5.43099 16.5821 5.3745 17.6675C5.36243 17.862 5.39186 18.0569 5.46083 18.2392C5.52981 18.4215 5.63676 18.5871 5.77459 18.7249C5.91241 18.8627 6.07797 18.9697 6.26027 19.0387C6.44257 19.1076 6.63745 19.1371 6.832 19.125C7.91858 19.069 8.99468 18.8843 10.0378 18.575ZM14.3065 10.193C10.0172 10.2666 7.67968 11.062 6.469 13.1919C7.62671 13.5084 8.68194 14.1212 9.53067 14.9698C10.3794 15.8184 10.9923 16.8735 11.309 18.0312C13.4375 16.8191 14.2329 14.4823 14.3065 10.193ZM15.39 13.625C15.3132 14.0886 15.2111 14.5476 15.0841 15H15.5007C15.7112 14.999 15.9145 14.9225 16.0735 14.7846C16.2325 14.6466 16.3369 14.4562 16.3676 14.2479C16.3839 14.1695 16.3819 14.0884 16.3616 14.011C16.3414 13.9335 16.3035 13.8618 16.2508 13.8015C16.1982 13.7411 16.1324 13.6938 16.0584 13.6632C15.9844 13.6326 15.9044 13.6195 15.8245 13.625H15.39ZM19.0557 8.25494C18.8889 8.02764 18.677 7.83711 18.4334 7.69518C18.1898 7.55325 17.9195 7.46297 17.6395 7.42994C17.4984 7.40629 17.3681 7.3392 17.267 7.23803C17.1658 7.13685 17.0987 7.00662 17.0751 6.8655C17.0421 6.58545 16.9519 6.31519 16.8099 6.07153C16.668 5.82788 16.4774 5.61605 16.2501 5.44925C16.1982 5.40894 16.1358 5.38434 16.0704 5.37837C16.005 5.3724 15.9392 5.38531 15.8809 5.41556C15.8225 5.4417 15.7731 5.48432 15.7386 5.53819C15.7042 5.59205 15.6862 5.65482 15.687 5.71875V8.8125H18.7807C18.8445 8.81433 18.9073 8.79756 18.9617 8.76423C19.016 8.73089 19.0594 8.68245 19.0867 8.62481C19.1175 8.56666 19.1309 8.5009 19.1254 8.43534C19.1199 8.36978 19.0958 8.30716 19.0557 8.25494Z" fill="#81654D"/>
</svg>
