<svg width="36" height="32" viewBox="0 0 36 32" fill="none" xmlns="http://www.w3.org/2000/svg">
<rect width="36" height="32" rx="8" fill="#291F1E" fill-opacity="0.4"/>
<path fill-rule="evenodd" clip-rule="evenodd" d="M22.5 14.1514L25.5 12.1514V19.8486L22.5 17.8486V14.1514ZM25.3676 21.5631L22.4197 19.5979C22.1579 20.5503 21.2856 21.25 20.25 21.25H11.25C10.0074 21.25 9 20.2426 9 19V13C9 11.7574 10.0074 10.75 11.25 10.75H20.25C21.2856 10.75 22.1579 11.4497 22.4197 12.4021L25.3676 10.4369C26.0653 9.97171 27 10.4719 27 11.3106V20.6894C27 21.5281 26.0653 22.0283 25.3676 21.5631ZM10.5 13C10.5 12.5858 10.8358 12.25 11.25 12.25H20.25C20.6642 12.25 21 12.5858 21 13V19C21 19.4142 20.6642 19.75 20.25 19.75H11.25C10.8358 19.75 10.5 19.4142 10.5 19V13ZM12.75 15.2499C13.1642 15.2499 13.5 14.9141 13.5 14.4999C13.5 14.0857 13.1642 13.7499 12.75 13.7499C12.3358 13.7499 12 14.0857 12 14.4999C12 14.9141 12.3358 15.2499 12.75 15.2499Z" fill="#FEFEFE"/>
</svg>
