<svg width="178" height="56" viewBox="0 0 178 56" fill="none" xmlns="http://www.w3.org/2000/svg">
<path d="M5.65163 33.2273H39.8482L39.3955 37.1634L39.3955 37.1634C39.1777 39.0587 38.2735 40.807 36.8553 42.0759C35.4373 43.3446 33.6043 44.0455 31.7054 44.0455H13.7944C11.8955 44.0455 10.0626 43.3446 8.64448 42.0759C7.22636 40.807 6.32211 39.0587 6.10437 37.1634L6.10437 37.1634L5.65163 33.2273Z" fill="#695243" stroke="#695243"/>
<path d="M40.409 32.7273L52.1817 28M40.409 32.7273H5.09082L5.60764 37.2205C5.83932 39.2371 6.80151 41.0978 8.31109 42.4485C9.82067 43.7991 11.7722 44.5455 13.7944 44.5455H31.7054C33.7276 44.5455 35.6792 43.7991 37.1887 42.4485C38.6983 41.0978 39.6605 39.2371 39.8922 37.2205L40.409 32.7273Z" stroke="#695243" stroke-width="3" stroke-linecap="round" stroke-linejoin="round"/>
<path d="M34.1369 48.3636C34.1369 50.3468 32.5292 51.9546 30.546 51.9546C28.5628 51.9546 26.9551 50.3468 26.9551 48.3636C26.9551 46.3804 28.5628 44.7727 30.546 44.7727C32.5292 44.7727 34.1369 46.3804 34.1369 48.3636Z" stroke="#564538" stroke-width="3"/>
<path d="M16.546 51.9545C18.5292 51.9545 20.1369 50.3468 20.1369 48.3636C20.1369 46.3804 18.5292 44.7727 16.546 44.7727C14.5628 44.7727 12.9551 46.3804 12.9551 48.3636C12.9551 50.3468 14.5628 51.9545 16.546 51.9545Z" stroke="#564538" stroke-width="3"/>
<path d="M46.7283 18.8532C46.9458 18.1401 46.9808 17.3888 46.8296 16.673C46.6785 15.9572 46.3465 15.3015 45.8661 14.7701C45.3858 14.2387 44.7736 13.8499 44.0896 13.6418C43.4056 13.4337 42.6733 13.4134 41.9645 13.583C42.1303 12.7182 42.034 11.8329 41.6886 11.0472C41.3432 10.2615 40.7655 9.61342 40.0339 9.19102C39.3023 8.76862 38.4522 8.59234 37.599 8.68609C36.7459 8.77984 35.931 9.13909 35.265 9.71507C35.0575 9.01641 34.6738 8.39233 34.1516 7.90403C33.6293 7.41574 32.9865 7.07998 32.2861 6.92969C31.5858 6.7794 30.8519 6.81973 30.1564 7.04674C29.4609 7.27375 28.8278 7.67963 28.319 8.22459C27.9219 8.64979 27.6092 9.14905 27.3997 9.69265C27.1902 10.2363 27.088 10.8131 27.0994 11.3888C27.1107 11.9644 27.2353 12.5272 27.4658 13.0436C27.6962 13.5599 28.0278 14.0193 28.4407 14.3943L25.3666 19.7188C25.1369 20.1166 25.0675 20.5852 25.1735 21.0215C25.2796 21.4577 25.5525 21.826 25.9321 22.0452L35.9527 27.8305C36.3324 28.0497 36.7877 28.1019 37.2186 27.9757C37.6494 27.8494 38.0205 27.555 38.2502 27.1572L41.3243 21.8326C41.8555 22.0027 42.4191 22.0602 42.9815 22.0016C43.5439 21.943 44.0936 21.7695 44.5978 21.4915C45.1021 21.2135 45.5505 20.8366 45.9165 20.3833C46.2825 19.9301 46.5586 19.4097 46.7283 18.8532Z" stroke="#564538" stroke-width="3" stroke-linecap="round" stroke-linejoin="round"/>
<path d="M73.2422 28.3379H76.377V26.1406C76.377 25.5547 76.5723 25.0859 76.9629 24.7344C77.2754 24.4805 77.7539 24.3535 78.3984 24.3535C78.9844 24.3535 79.4336 24.4512 79.7461 24.6465C80.1562 24.998 80.3613 25.4961 80.3613 26.1406V28.3379H83.3203C84.6484 28.3379 85.5762 28.6113 86.1035 29.1582C86.5723 29.7637 86.8066 30.6621 86.8066 31.8535V37.0098C87.4707 37.0293 87.959 37.1758 88.2715 37.4492C88.5645 37.6836 88.7109 38.1719 88.7109 38.9141C88.7109 39.5 88.584 39.9492 88.3301 40.2617C87.9785 40.6719 87.4316 40.877 86.6895 40.877H80.8594C81.1133 41.7363 81.4258 42.4492 81.7969 43.0156C82.8125 44.5391 84.834 46.0234 87.8613 47.4688C88.4863 47.7422 88.7988 48.2891 88.7988 49.1094C88.7598 49.7734 88.6133 50.2812 88.3594 50.6328C87.9102 51.1797 87.3926 51.4531 86.8066 51.4531C86.2012 51.4531 85.4004 51.1895 84.4043 50.6621C82.6855 49.5684 80.8496 47.7617 78.8965 45.2422C78.6816 44.9102 78.5156 44.7441 78.3984 44.7441C78.2617 44.7441 78.1348 44.9102 78.0176 45.2422C76.8262 47.5469 75.293 49.3633 73.418 50.6914C72.793 51.1992 72.2168 51.4531 71.6895 51.4531C70.9668 51.4531 70.3809 51.1797 69.9316 50.6328C69.6387 50.2227 69.4922 49.7832 69.4922 49.3145C69.4922 48.5332 69.7949 47.9961 70.4004 47.7031C72.627 46.3945 74.1992 44.9492 75.1172 43.3672C75.5078 42.7031 75.8008 41.873 75.9961 40.877H72.1875C71.5234 40.877 71.0156 40.7305 70.6641 40.4375C70.332 40.1445 70.166 39.6367 70.166 38.9141C70.166 38.1914 70.332 37.7031 70.6641 37.4492C70.9766 37.1562 71.4844 37.0098 72.1875 37.0098H76.377V32.0879H73.2422C72.5391 32.0879 72.0605 31.9512 71.8066 31.6777C71.4941 31.4238 71.3379 30.9453 71.3379 30.2422C71.3379 29.5781 71.4746 29.1094 71.748 28.8359C72.041 28.5039 72.5391 28.3379 73.2422 28.3379ZM80.3613 32.0879V37.0098H82.8223V32.4688C82.8223 32.2148 82.7148 32.0879 82.5 32.0879H80.3613ZM63.1641 30.125C63.6719 30.125 64.082 30.2324 64.3945 30.4473C64.5312 30.5254 64.6289 30.623 64.6875 30.7402V26.2578C64.6875 25.6523 64.8633 25.1934 65.2148 24.8809C65.5078 24.5293 65.9473 24.3535 66.5332 24.3535C67.1582 24.3535 67.6367 24.5293 67.9688 24.8809C68.3594 25.1934 68.5547 25.6523 68.5547 26.2578V29.6562C68.6719 29.6367 68.7793 29.627 68.877 29.627C69.1113 29.627 69.3164 29.666 69.4922 29.7441C69.8438 30.1348 70.2441 30.7109 70.6934 31.4727C71.6895 33.4062 72.1875 34.8223 72.1875 35.7207C72.1875 36.1309 72.0312 36.4043 71.7188 36.541C71.4844 36.7754 71.084 36.8926 70.5176 36.8926C70.0684 36.8926 69.7266 36.668 69.4922 36.2188C69.1602 35.2812 68.8477 34.4219 68.5547 33.6406V49.7832C68.5547 50.2715 68.418 50.6816 68.1445 51.0137C67.8125 51.4629 67.2754 51.6875 66.5332 51.6875C65.9082 51.6875 65.4297 51.4629 65.0977 51.0137C64.8242 50.7012 64.6875 50.291 64.6875 49.7832V34.2559C64.2969 37.459 63.9844 39.5195 63.75 40.4375C63.6133 40.9062 63.1836 41.1406 62.4609 41.1406C61.9727 41.1406 61.6016 40.9941 61.3477 40.7012C61.0742 40.5254 60.9375 40.1543 60.9375 39.5879C60.9375 39.334 60.9668 38.9531 61.0254 38.4453C61.5137 36.082 61.9141 33.5332 62.2266 30.7988C62.3828 30.3496 62.6953 30.125 63.1641 30.125ZM96.3703 26.4922H102.698V25.9941C102.698 25.5059 102.894 25.0469 103.284 24.6172C103.597 24.3633 104.095 24.2363 104.779 24.2363C105.482 24.2363 105.989 24.373 106.302 24.6465C106.693 24.9785 106.888 25.4277 106.888 25.9941V26.4922H112.659C113.148 26.4922 113.509 26.5898 113.743 26.7852C113.958 26.9609 114.066 27.3027 114.066 27.8105C114.984 27.0879 115.882 26.3262 116.761 25.5254C117.073 25.2324 117.386 25.0859 117.698 25.0859C118.148 25.0859 118.568 25.252 118.958 25.584C119.271 25.8574 119.427 26.2676 119.427 26.8145C119.427 27.3613 119.202 27.8203 118.753 28.1914C118.011 29.0508 116.976 29.959 115.648 30.916H119.105C119.632 30.916 120.023 31.0234 120.277 31.2383C120.491 31.4336 120.599 31.7949 120.599 32.3223C120.599 32.791 120.511 33.1426 120.335 33.377C120.042 33.709 119.632 33.875 119.105 33.875H110.96C110.745 33.9922 110.54 34.1094 110.345 34.2266C109.525 34.6562 108.695 35.0469 107.855 35.3984H115.56C117.064 35.3984 117.816 36.1406 117.816 37.625V43.2207C117.816 44.7246 117.064 45.4766 115.56 45.4766H99.1828C97.6789 45.4766 96.927 44.7246 96.927 43.2207V39.0898C95.716 39.3438 94.8566 39.4707 94.3488 39.4707C93.7824 39.4707 93.4016 39.3145 93.2062 39.002C92.9719 38.748 92.8547 38.3281 92.8547 37.7422C92.8547 36.9609 93.1672 36.4922 93.7922 36.3359C97.2102 35.5742 100.179 34.7539 102.698 33.875H94.7004C94.2121 33.875 93.8312 33.748 93.5578 33.4941C93.3039 33.2793 93.177 32.8887 93.177 32.3223C93.177 31.7949 93.3039 31.4336 93.5578 31.2383C93.7922 31.0234 94.173 30.916 94.7004 30.916H102.698V29.2754H96.3703C95.882 29.2754 95.5207 29.168 95.2863 28.9531C95.0715 28.7578 94.9641 28.4062 94.9641 27.8984C94.9641 27.332 95.0715 26.9609 95.2863 26.7852C95.5012 26.5898 95.8625 26.4922 96.3703 26.4922ZM109.349 30.916C110.267 30.4277 111.165 29.8809 112.044 29.2754H106.888V30.916H109.349ZM113.099 42.8984C113.411 42.8984 113.568 42.7422 113.568 42.4297V41.4922H101.146V42.4297C101.146 42.7422 101.312 42.8984 101.644 42.8984H113.099ZM101.146 39.3535H113.568V38.416C113.568 38.123 113.411 37.9766 113.099 37.9766H101.644C101.312 37.9766 101.146 38.123 101.146 38.416V39.3535ZM96.3703 45.6816C97.0148 45.6816 97.552 45.8477 97.9816 46.1797C98.3723 46.375 98.5676 46.8438 98.5676 47.5859C98.5676 47.7617 98.4895 48.0156 98.3332 48.3477C97.8645 49.4219 97.3566 50.252 96.8098 50.8379C96.5168 51.4043 96.0187 51.6875 95.3156 51.6875C94.7883 51.6875 94.3195 51.5117 93.9094 51.1602C93.4211 50.8281 93.177 50.3691 93.177 49.7832C93.177 49.6074 93.2453 49.4219 93.382 49.2266C94.0461 48.543 94.6516 47.7129 95.1984 46.7363C95.4328 46.0332 95.8234 45.6816 96.3703 45.6816ZM102.464 46.1797C103.206 46.1797 103.753 46.4043 104.105 46.8535C104.456 47.1465 104.886 47.7129 105.394 48.5527C105.687 49.1191 105.833 49.5781 105.833 49.9297C105.833 50.4375 105.687 50.8086 105.394 51.043C105.023 51.4531 104.515 51.668 103.87 51.6875C103.304 51.6875 102.884 51.5801 102.611 51.3652C102.396 51.2285 102.259 51.0137 102.2 50.7207C101.81 50.0566 101.243 49.1973 100.501 48.1426C100.482 48.084 100.472 48.0156 100.472 47.9375C100.472 47.7227 100.511 47.4688 100.589 47.1758C100.784 46.8438 101.107 46.5801 101.556 46.3848C101.849 46.248 102.152 46.1797 102.464 46.1797ZM109.261 46.0332C110.003 46.0332 110.54 46.2676 110.872 46.7363C111.282 47.0293 111.741 47.5957 112.249 48.4355C112.601 49.002 112.777 49.4512 112.777 49.7832C112.777 50.3105 112.611 50.6914 112.279 50.9258C111.946 51.3359 111.439 51.5508 110.755 51.5703C110.189 51.5703 109.769 51.4629 109.495 51.248C109.32 51.0918 109.202 50.877 109.144 50.6035C108.714 49.9395 108.099 49.0801 107.298 48.0254C107.259 47.9668 107.239 47.8984 107.239 47.8203C107.239 47.6055 107.288 47.3516 107.386 47.0586C107.581 46.7266 107.904 46.4629 108.353 46.2676C108.665 46.1113 108.968 46.0332 109.261 46.0332ZM116.527 45.916C117.21 45.916 117.718 46.1211 118.05 46.5312C118.538 46.8242 119.105 47.4492 119.749 48.4062C120.179 49.0312 120.394 49.5391 120.394 49.9297C120.394 50.3984 120.247 50.75 119.954 50.9844C119.603 51.3555 119.114 51.5508 118.489 51.5703C117.943 51.5703 117.523 51.4727 117.23 51.2773C117.034 51.1406 116.907 50.9551 116.849 50.7207C116.341 49.959 115.618 49.002 114.681 47.8496C114.642 47.7715 114.622 47.6836 114.622 47.5859C114.622 47.3711 114.671 47.127 114.769 46.8535C114.945 46.5605 115.247 46.3164 115.677 46.1211C115.95 45.9844 116.234 45.916 116.527 45.916ZM126.764 27.166H128.61V25.877C128.61 25.4863 128.766 25.125 129.079 24.793C129.332 24.5781 129.723 24.4707 130.25 24.4707C130.836 24.4707 131.256 24.5781 131.51 24.793C131.862 25.0664 132.037 25.4277 132.037 25.877V27.166H133.209C133.444 27.166 133.629 27.1855 133.766 27.2246V27.0488C133.766 26.4824 133.903 26.0918 134.176 25.877C134.43 25.6426 134.84 25.5254 135.407 25.5254H150.67C151.256 25.5254 151.676 25.6426 151.93 25.877C152.184 26.0723 152.311 26.4629 152.311 27.0488C152.311 27.5566 152.204 27.9277 151.989 28.1621C151.696 28.5332 151.256 28.7188 150.67 28.7188H144.342V44.1289C144.459 43.9141 144.606 43.6797 144.782 43.4258C145.758 42.1953 146.559 41.0234 147.184 39.9102C146.539 38.543 145.885 37.2344 145.221 35.9844C144.87 35.4375 144.694 34.959 144.694 34.5488C144.694 34.2168 144.84 33.9336 145.133 33.6992C145.426 33.4844 145.748 33.377 146.1 33.377C146.549 33.377 146.862 33.543 147.037 33.875C147.565 34.6172 148.102 35.4375 148.649 36.3359C149.059 35.0078 149.264 33.875 149.264 32.9375C149.264 32.7031 149.137 32.5859 148.883 32.5859H146.657C146.227 32.5859 145.866 32.4297 145.573 32.1172C145.358 31.8828 145.25 31.4824 145.25 30.916C145.25 30.4082 145.377 30.0371 145.631 29.8027C145.866 29.5293 146.207 29.3926 146.657 29.3926H150.172C150.895 29.3926 151.422 29.5098 151.754 29.7441C152.184 30.0957 152.399 30.7598 152.399 31.7363C152.399 33.8262 151.95 36.1797 151.051 38.7969C150.895 39.207 150.739 39.5977 150.582 39.9688C150.993 40.8672 151.403 41.7949 151.813 42.752C152.164 43.5332 152.36 44.1582 152.399 44.627C152.399 45.1348 152.243 45.4961 151.93 45.7109C151.559 46.0039 151.178 46.1602 150.787 46.1797C150.123 46.1797 149.694 45.9062 149.498 45.3594C149.225 44.6562 148.952 43.9824 148.678 43.3379C148.248 44.002 147.78 44.5977 147.272 45.125C146.842 45.7305 146.334 46.0332 145.748 46.0332C145.26 46.0332 144.889 45.8867 144.635 45.5938C144.498 45.5156 144.401 45.3887 144.342 45.2129V45.4766C144.342 46.0039 144.196 46.375 143.903 46.5898C143.649 46.8438 143.239 46.9707 142.672 46.9707C142.184 46.9707 141.803 46.8438 141.53 46.5898C141.276 46.375 141.149 46.0039 141.149 45.4766V44.334C138.766 44.7051 136.901 44.8906 135.553 44.8906C134.987 44.8906 134.586 44.7539 134.352 44.4805C134.137 44.2656 134.02 43.8848 134 43.3379C134 43.1426 134.02 42.9766 134.059 42.8398C133.903 42.8789 133.737 42.8984 133.561 42.8984H133.209V47.0879C134.616 47.498 136.715 47.7031 139.508 47.7031C143.141 47.7031 146.041 47.6543 148.209 47.5566C149.674 47.498 150.612 47.4688 151.022 47.4688C151.588 47.4688 152.018 47.6055 152.311 47.8789C152.682 48.1914 152.868 48.6406 152.868 49.2266C152.868 49.6562 152.78 50.0566 152.604 50.4277C152.467 50.7012 152.233 50.9062 151.901 51.043C151.53 51.1602 151.032 51.2188 150.407 51.2188H139.743C136.305 51.2188 133.62 50.9648 131.686 50.457C130.495 50.0859 129.323 49.3145 128.17 48.1426C127.877 49.4707 127.526 50.3691 127.116 50.8379C126.94 51.248 126.471 51.4531 125.709 51.4531C125.182 51.4531 124.811 51.3066 124.596 51.0137C124.303 50.8184 124.157 50.457 124.157 49.9297C124.176 49.6953 124.264 49.4512 124.42 49.1973C125.202 47.1465 125.631 45.0371 125.709 42.8691V39.1484C125.729 38.7578 125.856 38.4551 126.09 38.2402C126.325 38.0645 126.705 37.9766 127.233 37.9766C127.643 37.9766 127.995 38.0547 128.287 38.2109C128.561 38.4453 128.707 38.7871 128.727 39.2363V41.9902C128.727 42.3809 128.717 42.7422 128.698 43.0742C129.127 43.6602 129.528 44.168 129.899 44.5977V36.6875H126.266C125.778 36.6875 125.387 36.5508 125.094 36.2773C124.801 36.0234 124.655 35.5742 124.655 34.9297C124.655 34.2656 124.801 33.8164 125.094 33.582C125.329 33.3672 125.719 33.2598 126.266 33.2598H128.61V30.6816H126.764C126.256 30.6816 125.856 30.5547 125.563 30.3008C125.25 30.0469 125.094 29.5977 125.094 28.9531C125.094 28.25 125.25 27.7715 125.563 27.5176C125.797 27.2832 126.198 27.166 126.764 27.166ZM135.114 41.8438C135.211 41.8242 135.309 41.8145 135.407 41.8145C135.563 41.7949 135.69 41.7852 135.787 41.7852V28.7188H135.407C135.172 28.7188 134.977 28.6992 134.821 28.6602C134.84 28.7578 134.85 28.8555 134.85 28.9531C134.85 29.5195 134.762 29.9199 134.586 30.1543C134.293 30.5059 133.834 30.6816 133.209 30.6816H132.037V33.2598H133.649C134.215 33.2598 134.616 33.3672 134.85 33.582C135.143 33.7969 135.289 34.2461 135.289 34.9297C135.289 35.4961 135.202 35.8965 135.026 36.1309C134.772 36.502 134.313 36.6875 133.649 36.6875H133.209V39.4707H133.561C134.205 39.4707 134.625 39.5879 134.821 39.8223C135.055 40.0762 135.172 40.5156 135.172 41.1406C135.172 41.4336 135.153 41.668 135.114 41.8438ZM138.922 41.4629C139.704 41.3848 140.446 41.2969 141.149 41.1992V38.7969H138.922V41.4629ZM138.922 36.2188H141.149V33.875H138.922V36.2188ZM138.922 31.2969H141.149V28.7188H138.922V31.2969Z" fill="#695243"/>
<path d="M174 40.7143H162M171.6 33.4286H164.4M171.6 48H164.4" stroke="#564538" stroke-width="3" stroke-linecap="round" stroke-linejoin="round"/>
</svg>
