<svg width="144" height="44" viewBox="0 0 144 44" fill="none" xmlns="http://www.w3.org/2000/svg">
<path d="M4 25.7143H31.75L31.3439 29.2447C31.1619 30.8292 30.4059 32.2912 29.2198 33.3524C28.0337 34.4136 26.5003 35 24.9115 35H10.8385C9.24969 35 7.71631 34.4136 6.53021 33.3524C5.34412 32.2912 4.58811 30.8292 4.40608 29.2447L4 25.7143Z" fill="#695243"/>
<path d="M31.75 25.7143L41 22M31.75 25.7143H4L4.40608 29.2447C4.58811 30.8292 5.34412 32.2912 6.53021 33.3524C7.71631 34.4136 9.24969 35 10.8385 35H24.9115C26.5003 35 28.0337 34.4136 29.2198 33.3524C30.4059 32.2912 31.1619 30.8292 31.3439 29.2447L31.75 25.7143Z" stroke="#695243" stroke-width="3" stroke-linecap="round" stroke-linejoin="round"/>
<path d="M24 40.5C25.3807 40.5 26.5 39.3807 26.5 38C26.5 36.6193 25.3807 35.5 24 35.5C22.6193 35.5 21.5 36.6193 21.5 38C21.5 39.3807 22.6193 40.5 24 40.5Z" stroke="#564538" stroke-width="3"/>
<path d="M13 40.5C14.3807 40.5 15.5 39.3807 15.5 38C15.5 36.6193 14.3807 35.5 13 35.5C11.6193 35.5 10.5 36.6193 10.5 38C10.5 39.3807 11.6193 40.5 13 40.5Z" stroke="#564538" stroke-width="3"/>
<path d="M36.7152 14.813C36.8862 14.2527 36.9136 13.6625 36.7949 13.1C36.6761 12.5376 36.4152 12.0224 36.0378 11.6049C35.6604 11.1873 35.1794 10.8818 34.642 10.7183C34.1046 10.5548 33.5292 10.5389 32.9722 10.6722C33.1025 9.99268 33.0268 9.29706 32.7555 8.67971C32.4841 8.06236 32.0302 7.55318 31.4553 7.22129C30.8805 6.88941 30.2126 6.7509 29.5423 6.82456C28.8719 6.89822 28.2317 7.18049 27.7084 7.63304C27.5453 7.0841 27.2438 6.59375 26.8335 6.21009C26.4232 5.82642 25.9182 5.56262 25.3678 5.44453C24.8175 5.32644 24.2409 5.35814 23.6945 5.5365C23.148 5.71486 22.6506 6.03377 22.2508 6.46195C21.9388 6.79603 21.6931 7.18832 21.5285 7.61543C21.3639 8.04255 21.2836 8.49576 21.2925 8.94808C21.3015 9.40041 21.3994 9.84258 21.5804 10.2483C21.7615 10.654 22.022 11.0149 22.3464 11.3096L19.931 15.4932C19.7506 15.8057 19.696 16.1739 19.7794 16.5167C19.8627 16.8594 20.0771 17.1488 20.3754 17.321L28.2487 21.8667C28.547 22.0389 28.9048 22.0799 29.2433 21.9807C29.5819 21.8815 29.8734 21.6501 30.0539 21.3376L32.4692 17.154C32.8867 17.2877 33.3295 17.3328 33.7714 17.2868C34.2132 17.2407 34.6451 17.1044 35.0413 16.886C35.4375 16.6675 35.7899 16.3714 36.0774 16.0153C36.365 15.6592 36.5819 15.2503 36.7152 14.813Z" stroke="#564538" stroke-width="3" stroke-linecap="round" stroke-linejoin="round"/>
<path d="M58.5938 22.0703H61.1016V20.3125C61.1016 19.8438 61.2578 19.4688 61.5703 19.1875C61.8203 18.9844 62.2031 18.8828 62.7188 18.8828C63.1875 18.8828 63.5469 18.9609 63.7969 19.1172C64.125 19.3984 64.2891 19.7969 64.2891 20.3125V22.0703H66.6562C67.7188 22.0703 68.4609 22.2891 68.8828 22.7266C69.2578 23.2109 69.4453 23.9297 69.4453 24.8828V29.0078C69.9766 29.0234 70.3672 29.1406 70.6172 29.3594C70.8516 29.5469 70.9688 29.9375 70.9688 30.5312C70.9688 31 70.8672 31.3594 70.6641 31.6094C70.3828 31.9375 69.9453 32.1016 69.3516 32.1016H64.6875C64.8906 32.7891 65.1406 33.3594 65.4375 33.8125C66.25 35.0312 67.8672 36.2188 70.2891 37.375C70.7891 37.5938 71.0391 38.0312 71.0391 38.6875C71.0078 39.2188 70.8906 39.625 70.6875 39.9062C70.3281 40.3438 69.9141 40.5625 69.4453 40.5625C68.9609 40.5625 68.3203 40.3516 67.5234 39.9297C66.1484 39.0547 64.6797 37.6094 63.1172 35.5938C62.9453 35.3281 62.8125 35.1953 62.7188 35.1953C62.6094 35.1953 62.5078 35.3281 62.4141 35.5938C61.4609 37.4375 60.2344 38.8906 58.7344 39.9531C58.2344 40.3594 57.7734 40.5625 57.3516 40.5625C56.7734 40.5625 56.3047 40.3438 55.9453 39.9062C55.7109 39.5781 55.5938 39.2266 55.5938 38.8516C55.5938 38.2266 55.8359 37.7969 56.3203 37.5625C58.1016 36.5156 59.3594 35.3594 60.0938 34.0938C60.4062 33.5625 60.6406 32.8984 60.7969 32.1016H57.75C57.2188 32.1016 56.8125 31.9844 56.5312 31.75C56.2656 31.5156 56.1328 31.1094 56.1328 30.5312C56.1328 29.9531 56.2656 29.5625 56.5312 29.3594C56.7812 29.125 57.1875 29.0078 57.75 29.0078H61.1016V25.0703H58.5938C58.0312 25.0703 57.6484 24.9609 57.4453 24.7422C57.1953 24.5391 57.0703 24.1562 57.0703 23.5938C57.0703 23.0625 57.1797 22.6875 57.3984 22.4688C57.6328 22.2031 58.0312 22.0703 58.5938 22.0703ZM64.2891 25.0703V29.0078H66.2578V25.375C66.2578 25.1719 66.1719 25.0703 66 25.0703H64.2891ZM50.5312 23.5C50.9375 23.5 51.2656 23.5859 51.5156 23.7578C51.625 23.8203 51.7031 23.8984 51.75 23.9922V20.4062C51.75 19.9219 51.8906 19.5547 52.1719 19.3047C52.4062 19.0234 52.7578 18.8828 53.2266 18.8828C53.7266 18.8828 54.1094 19.0234 54.375 19.3047C54.6875 19.5547 54.8438 19.9219 54.8438 20.4062V23.125C54.9375 23.1094 55.0234 23.1016 55.1016 23.1016C55.2891 23.1016 55.4531 23.1328 55.5938 23.1953C55.875 23.5078 56.1953 23.9688 56.5547 24.5781C57.3516 26.125 57.75 27.2578 57.75 27.9766C57.75 28.3047 57.625 28.5234 57.375 28.6328C57.1875 28.8203 56.8672 28.9141 56.4141 28.9141C56.0547 28.9141 55.7812 28.7344 55.5938 28.375C55.3281 27.625 55.0781 26.9375 54.8438 26.3125V39.2266C54.8438 39.6172 54.7344 39.9453 54.5156 40.2109C54.25 40.5703 53.8203 40.75 53.2266 40.75C52.7266 40.75 52.3438 40.5703 52.0781 40.2109C51.8594 39.9609 51.75 39.6328 51.75 39.2266V26.8047C51.4375 29.3672 51.1875 31.0156 51 31.75C50.8906 32.125 50.5469 32.3125 49.9688 32.3125C49.5781 32.3125 49.2812 32.1953 49.0781 31.9609C48.8594 31.8203 48.75 31.5234 48.75 31.0703C48.75 30.8672 48.7734 30.5625 48.8203 30.1562C49.2109 28.2656 49.5312 26.2266 49.7812 24.0391C49.9062 23.6797 50.1562 23.5 50.5312 23.5ZM77.0963 20.5938H82.1588V20.1953C82.1588 19.8047 82.315 19.4375 82.6275 19.0938C82.8775 18.8906 83.2759 18.7891 83.8228 18.7891C84.3853 18.7891 84.7916 18.8984 85.0416 19.1172C85.3541 19.3828 85.5103 19.7422 85.5103 20.1953V20.5938H90.1275C90.5181 20.5938 90.8072 20.6719 90.9947 20.8281C91.1666 20.9688 91.2525 21.2422 91.2525 21.6484C91.9869 21.0703 92.7056 20.4609 93.4088 19.8203C93.6588 19.5859 93.9088 19.4688 94.1588 19.4688C94.5181 19.4688 94.8541 19.6016 95.1666 19.8672C95.4166 20.0859 95.5416 20.4141 95.5416 20.8516C95.5416 21.2891 95.3619 21.6562 95.0025 21.9531C94.4088 22.6406 93.5806 23.3672 92.5181 24.1328H95.2838C95.7056 24.1328 96.0181 24.2188 96.2213 24.3906C96.3931 24.5469 96.4791 24.8359 96.4791 25.2578C96.4791 25.6328 96.4088 25.9141 96.2681 26.1016C96.0338 26.3672 95.7056 26.5 95.2838 26.5H88.7681C88.5963 26.5938 88.4322 26.6875 88.2759 26.7812C87.6197 27.125 86.9556 27.4375 86.2838 27.7188H92.4478C93.6509 27.7188 94.2525 28.3125 94.2525 29.5V33.9766C94.2525 35.1797 93.6509 35.7812 92.4478 35.7812H79.3463C78.1431 35.7812 77.5416 35.1797 77.5416 33.9766V30.6719C76.5728 30.875 75.8853 30.9766 75.4791 30.9766C75.0259 30.9766 74.7213 30.8516 74.565 30.6016C74.3775 30.3984 74.2838 30.0625 74.2838 29.5938C74.2838 28.9688 74.5338 28.5938 75.0338 28.4688C77.7681 27.8594 80.1431 27.2031 82.1588 26.5H75.7603C75.3697 26.5 75.065 26.3984 74.8463 26.1953C74.6431 26.0234 74.5416 25.7109 74.5416 25.2578C74.5416 24.8359 74.6431 24.5469 74.8463 24.3906C75.0338 24.2188 75.3384 24.1328 75.7603 24.1328H82.1588V22.8203H77.0963C76.7056 22.8203 76.4166 22.7344 76.2291 22.5625C76.0572 22.4062 75.9713 22.125 75.9713 21.7188C75.9713 21.2656 76.0572 20.9688 76.2291 20.8281C76.4009 20.6719 76.69 20.5938 77.0963 20.5938ZM87.4791 24.1328C88.2134 23.7422 88.9322 23.3047 89.6353 22.8203H85.5103V24.1328H87.4791ZM90.4791 33.7188C90.7291 33.7188 90.8541 33.5938 90.8541 33.3438V32.5938H80.9166V33.3438C80.9166 33.5938 81.0494 33.7188 81.315 33.7188H90.4791ZM80.9166 30.8828H90.8541V30.1328C90.8541 29.8984 90.7291 29.7812 90.4791 29.7812H81.315C81.0494 29.7812 80.9166 29.8984 80.9166 30.1328V30.8828ZM77.0963 35.9453C77.6119 35.9453 78.0416 36.0781 78.3853 36.3438C78.6978 36.5 78.8541 36.875 78.8541 37.4688C78.8541 37.6094 78.7916 37.8125 78.6666 38.0781C78.2916 38.9375 77.8853 39.6016 77.4478 40.0703C77.2134 40.5234 76.815 40.75 76.2525 40.75C75.8306 40.75 75.4556 40.6094 75.1275 40.3281C74.7369 40.0625 74.5416 39.6953 74.5416 39.2266C74.5416 39.0859 74.5963 38.9375 74.7056 38.7812C75.2369 38.2344 75.7213 37.5703 76.1588 36.7891C76.3463 36.2266 76.6588 35.9453 77.0963 35.9453ZM81.9713 36.3438C82.565 36.3438 83.0025 36.5234 83.2838 36.8828C83.565 37.1172 83.9088 37.5703 84.315 38.2422C84.5494 38.6953 84.6666 39.0625 84.6666 39.3438C84.6666 39.75 84.5494 40.0469 84.315 40.2344C84.0181 40.5625 83.6119 40.7344 83.0963 40.75C82.6431 40.75 82.3072 40.6641 82.0884 40.4922C81.9166 40.3828 81.8072 40.2109 81.7603 39.9766C81.4478 39.4453 80.9947 38.7578 80.4009 37.9141C80.3853 37.8672 80.3775 37.8125 80.3775 37.75C80.3775 37.5781 80.4088 37.375 80.4713 37.1406C80.6275 36.875 80.8853 36.6641 81.2447 36.5078C81.4791 36.3984 81.7213 36.3438 81.9713 36.3438ZM87.4088 36.2266C88.0025 36.2266 88.4322 36.4141 88.6978 36.7891C89.0259 37.0234 89.3931 37.4766 89.7994 38.1484C90.0806 38.6016 90.2213 38.9609 90.2213 39.2266C90.2213 39.6484 90.0884 39.9531 89.8228 40.1406C89.5572 40.4688 89.1509 40.6406 88.6041 40.6562C88.1509 40.6562 87.815 40.5703 87.5963 40.3984C87.4556 40.2734 87.3619 40.1016 87.315 39.8828C86.9713 39.3516 86.4791 38.6641 85.8384 37.8203C85.8072 37.7734 85.7916 37.7188 85.7916 37.6562C85.7916 37.4844 85.8306 37.2812 85.9088 37.0469C86.065 36.7812 86.3228 36.5703 86.6822 36.4141C86.9322 36.2891 87.1744 36.2266 87.4088 36.2266ZM93.2213 36.1328C93.7681 36.1328 94.1744 36.2969 94.44 36.625C94.8306 36.8594 95.2838 37.3594 95.7994 38.125C96.1431 38.625 96.315 39.0312 96.315 39.3438C96.315 39.7188 96.1978 40 95.9634 40.1875C95.6822 40.4844 95.2916 40.6406 94.7916 40.6562C94.3541 40.6562 94.0181 40.5781 93.7838 40.4219C93.6275 40.3125 93.5259 40.1641 93.4791 39.9766C93.0728 39.3672 92.4947 38.6016 91.7447 37.6797C91.7134 37.6172 91.6978 37.5469 91.6978 37.4688C91.6978 37.2969 91.7369 37.1016 91.815 36.8828C91.9556 36.6484 92.1978 36.4531 92.5416 36.2969C92.7603 36.1875 92.9869 36.1328 93.2213 36.1328ZM101.411 21.1328H102.888V20.1016C102.888 19.7891 103.013 19.5 103.263 19.2344C103.466 19.0625 103.778 18.9766 104.2 18.9766C104.669 18.9766 105.005 19.0625 105.208 19.2344C105.489 19.4531 105.63 19.7422 105.63 20.1016V21.1328H106.568C106.755 21.1328 106.903 21.1484 107.013 21.1797V21.0391C107.013 20.5859 107.122 20.2734 107.341 20.1016C107.544 19.9141 107.872 19.8203 108.325 19.8203H120.536C121.005 19.8203 121.341 19.9141 121.544 20.1016C121.747 20.2578 121.849 20.5703 121.849 21.0391C121.849 21.4453 121.763 21.7422 121.591 21.9297C121.357 22.2266 121.005 22.375 120.536 22.375H115.474V34.7031C115.568 34.5312 115.685 34.3438 115.825 34.1406C116.607 33.1562 117.247 32.2188 117.747 31.3281C117.232 30.2344 116.708 29.1875 116.177 28.1875C115.896 27.75 115.755 27.3672 115.755 27.0391C115.755 26.7734 115.872 26.5469 116.107 26.3594C116.341 26.1875 116.599 26.1016 116.88 26.1016C117.239 26.1016 117.489 26.2344 117.63 26.5C118.052 27.0938 118.482 27.75 118.919 28.4688C119.247 27.4062 119.411 26.5 119.411 25.75C119.411 25.5625 119.31 25.4688 119.107 25.4688H117.325C116.982 25.4688 116.693 25.3438 116.458 25.0938C116.286 24.9062 116.2 24.5859 116.2 24.1328C116.2 23.7266 116.302 23.4297 116.505 23.2422C116.693 23.0234 116.966 22.9141 117.325 22.9141H120.138C120.716 22.9141 121.138 23.0078 121.403 23.1953C121.747 23.4766 121.919 24.0078 121.919 24.7891C121.919 26.4609 121.56 28.3438 120.841 30.4375C120.716 30.7656 120.591 31.0781 120.466 31.375C120.794 32.0938 121.122 32.8359 121.45 33.6016C121.732 34.2266 121.888 34.7266 121.919 35.1016C121.919 35.5078 121.794 35.7969 121.544 35.9688C121.247 36.2031 120.943 36.3281 120.63 36.3438C120.099 36.3438 119.755 36.125 119.599 35.6875C119.38 35.125 119.161 34.5859 118.943 34.0703C118.599 34.6016 118.224 35.0781 117.818 35.5C117.474 35.9844 117.068 36.2266 116.599 36.2266C116.208 36.2266 115.911 36.1094 115.708 35.875C115.599 35.8125 115.521 35.7109 115.474 35.5703V35.7812C115.474 36.2031 115.357 36.5 115.122 36.6719C114.919 36.875 114.591 36.9766 114.138 36.9766C113.747 36.9766 113.443 36.875 113.224 36.6719C113.021 36.5 112.919 36.2031 112.919 35.7812V34.8672C111.013 35.1641 109.521 35.3125 108.443 35.3125C107.989 35.3125 107.669 35.2031 107.482 34.9844C107.31 34.8125 107.216 34.5078 107.2 34.0703C107.2 33.9141 107.216 33.7812 107.247 33.6719C107.122 33.7031 106.989 33.7188 106.849 33.7188H106.568V37.0703C107.693 37.3984 109.372 37.5625 111.607 37.5625C114.513 37.5625 116.833 37.5234 118.568 37.4453C119.739 37.3984 120.489 37.375 120.818 37.375C121.271 37.375 121.614 37.4844 121.849 37.7031C122.146 37.9531 122.294 38.3125 122.294 38.7812C122.294 39.125 122.224 39.4453 122.083 39.7422C121.974 39.9609 121.786 40.125 121.521 40.2344C121.224 40.3281 120.825 40.375 120.325 40.375H111.794C109.044 40.375 106.896 40.1719 105.349 39.7656C104.396 39.4688 103.458 38.8516 102.536 37.9141C102.302 38.9766 102.021 39.6953 101.693 40.0703C101.552 40.3984 101.177 40.5625 100.568 40.5625C100.146 40.5625 99.8488 40.4453 99.6769 40.2109C99.4425 40.0547 99.3253 39.7656 99.3253 39.3438C99.3409 39.1562 99.4113 38.9609 99.5363 38.7578C100.161 37.1172 100.505 35.4297 100.568 33.6953V30.7188C100.583 30.4062 100.685 30.1641 100.872 29.9922C101.06 29.8516 101.364 29.7812 101.786 29.7812C102.114 29.7812 102.396 29.8438 102.63 29.9688C102.849 30.1562 102.966 30.4297 102.982 30.7891V32.9922C102.982 33.3047 102.974 33.5938 102.958 33.8594C103.302 34.3281 103.622 34.7344 103.919 35.0781V28.75H101.013C100.622 28.75 100.31 28.6406 100.075 28.4219C99.8409 28.2188 99.7238 27.8594 99.7238 27.3438C99.7238 26.8125 99.8409 26.4531 100.075 26.2656C100.263 26.0938 100.575 26.0078 101.013 26.0078H102.888V23.9453H101.411C101.005 23.9453 100.685 23.8438 100.45 23.6406C100.2 23.4375 100.075 23.0781 100.075 22.5625C100.075 22 100.2 21.6172 100.45 21.4141C100.638 21.2266 100.958 21.1328 101.411 21.1328ZM108.091 32.875C108.169 32.8594 108.247 32.8516 108.325 32.8516C108.45 32.8359 108.552 32.8281 108.63 32.8281V22.375H108.325C108.138 22.375 107.982 22.3594 107.857 22.3281C107.872 22.4062 107.88 22.4844 107.88 22.5625C107.88 23.0156 107.81 23.3359 107.669 23.5234C107.435 23.8047 107.068 23.9453 106.568 23.9453H105.63V26.0078H106.919C107.372 26.0078 107.693 26.0938 107.88 26.2656C108.114 26.4375 108.232 26.7969 108.232 27.3438C108.232 27.7969 108.161 28.1172 108.021 28.3047C107.818 28.6016 107.45 28.75 106.919 28.75H106.568V30.9766H106.849C107.364 30.9766 107.7 31.0703 107.857 31.2578C108.044 31.4609 108.138 31.8125 108.138 32.3125C108.138 32.5469 108.122 32.7344 108.091 32.875ZM111.138 32.5703C111.763 32.5078 112.357 32.4375 112.919 32.3594V30.4375H111.138V32.5703ZM111.138 28.375H112.919V26.5H111.138V28.375ZM111.138 24.4375H112.919V22.375H111.138V24.4375Z" fill="#695243"/>
<path d="M140 32H131M138.2 26H132.8M138.2 38H132.8" stroke="#564538" stroke-width="3" stroke-linecap="round" stroke-linejoin="round"/>
</svg>
