<svg width="32" height="32" viewBox="0 0 32 32" fill="none" xmlns="http://www.w3.org/2000/svg">
<g id="LOGO">
<path id="Vector" d="M1.3335 18.4762H19.8335L19.5628 20.8298C19.4414 21.8861 18.9374 22.8608 18.1467 23.5683C17.356 24.2757 16.3337 24.6667 15.2745 24.6667H5.89251C4.83329 24.6667 3.81104 24.2757 3.0203 23.5683C2.22958 22.8608 1.72557 21.8861 1.60422 20.8298L1.3335 18.4762Z" fill="#695243"/>
<path id="Vector_2" d="M19.8335 18.4762L26.0002 16M19.8335 18.4762H1.3335L1.60422 20.8298C1.72557 21.8861 2.22958 22.8608 3.0203 23.5683C3.81104 24.2757 4.83329 24.6667 5.89251 24.6667H15.2745C16.3337 24.6667 17.356 24.2757 18.1467 23.5683C18.9374 22.8608 19.4414 21.8861 19.5628 20.8298L19.8335 18.4762Z" stroke="#695243" stroke-width="2" stroke-linecap="round" stroke-linejoin="round"/>
<path id="Vector_3" d="M14.6667 28.3333C15.5871 28.3333 16.3333 27.5871 16.3333 26.6667C16.3333 25.7462 15.5871 25 14.6667 25C13.7462 25 13 25.7462 13 26.6667C13 27.5871 13.7462 28.3333 14.6667 28.3333Z" stroke="#564538" stroke-width="2"/>
<path id="Vector_4" d="M7.33317 28.3333C8.25364 28.3333 8.99984 27.5871 8.99984 26.6667C8.99984 25.7462 8.25364 25 7.33317 25C6.4127 25 5.6665 25.7462 5.6665 26.6667C5.6665 27.5871 6.4127 28.3333 7.33317 28.3333Z" stroke="#564538" stroke-width="2"/>
<path id="Vector_5" d="M23.1436 11.2088C23.2576 10.8353 23.2759 10.4418 23.1967 10.0668C23.1175 9.69188 22.9436 9.34841 22.692 9.07007C22.4404 8.79167 22.1197 8.58801 21.7615 8.47901C21.4032 8.37001 21.0196 8.35941 20.6483 8.44828C20.7351 7.99528 20.6847 7.53154 20.5038 7.11994C20.3229 6.70841 20.0203 6.36895 19.637 6.14769C19.2538 5.92644 18.8085 5.8341 18.3617 5.8832C17.9147 5.93231 17.4879 6.12049 17.1391 6.42219C17.0303 6.05623 16.8293 5.72933 16.5558 5.47356C16.2823 5.21778 15.9456 5.04191 15.5787 4.96318C15.2118 4.88446 14.8274 4.90559 14.4631 5.0245C14.0988 5.1434 13.7672 5.35601 13.5007 5.64146C13.2927 5.86418 13.1289 6.12571 13.0191 6.41045C12.9094 6.69521 12.8559 6.99734 12.8618 7.29888C12.8678 7.60041 12.9331 7.89521 13.0537 8.16567C13.1745 8.43614 13.3481 8.67674 13.5644 8.87321L11.9541 11.6623C11.8339 11.8706 11.7975 12.1161 11.8531 12.3446C11.9086 12.5731 12.0515 12.766 12.2504 12.8808L17.4993 15.9113C17.6981 16.0261 17.9367 16.0534 18.1623 15.9873C18.3881 15.9211 18.5824 15.7669 18.7027 15.5585L20.3129 12.7695C20.5913 12.8586 20.8865 12.8887 21.1811 12.858C21.4756 12.8273 21.7635 12.7364 22.0277 12.5908C22.2918 12.4451 22.5267 12.2477 22.7184 12.0103C22.9101 11.7729 23.0547 11.5003 23.1436 11.2088Z" stroke="#564538" stroke-width="2" stroke-linecap="round" stroke-linejoin="round"/>
<path id="Vector_6" d="M30.6665 23.6667H24.6665M29.4665 20.6667H25.8665M29.4665 26.6667H25.8665" stroke="#564538" stroke-width="2" stroke-linecap="round" stroke-linejoin="round"/>
</g>
</svg>
