<svg width="181" height="56" viewBox="0 0 181 56" fill="none" xmlns="http://www.w3.org/2000/svg">
<path d="M40.4091 32.7273L52.1818 28ZM5.09088 32.7273H40.4091L39.8922 37.2205C39.6606 39.2371 38.6984 41.0978 37.1888 42.4485C35.6792 43.7991 33.7276 44.5455 31.7055 44.5455H13.7945C11.7723 44.5455 9.82073 43.7991 8.31115 42.4485C6.80158 41.0978 5.83938 39.2371 5.6077 37.2205L5.09088 32.7273Z" fill="#695243"/>
<path d="M40.4091 32.7273L52.1818 28M40.4091 32.7273H5.09088L5.6077 37.2205C5.83938 39.2371 6.80158 41.0978 8.31115 42.4485C9.82073 43.7991 11.7723 44.5455 13.7945 44.5455H31.7055C33.7276 44.5455 35.6792 43.7991 37.1888 42.4485C38.6984 41.0978 39.6606 39.2371 39.8922 37.2205L40.4091 32.7273Z" stroke="#695243" stroke-width="3" stroke-linecap="round" stroke-linejoin="round"/>
<path d="M34.1363 48.3634C34.1363 50.3466 32.5286 51.9543 30.5454 51.9543C28.5622 51.9543 26.9545 50.3466 26.9545 48.3634C26.9545 46.3802 28.5622 44.7725 30.5454 44.7725C32.5286 44.7725 34.1363 46.3802 34.1363 48.3634Z" stroke="#564538" stroke-width="3"/>
<circle cx="16.5454" cy="48.3634" r="3.59091" stroke="#564538" stroke-width="3"/>
<path d="M46.7286 18.8533C46.9461 18.1403 46.9811 17.389 46.8299 16.6732C46.6788 15.9574 46.3468 15.3017 45.8664 14.7703C45.3861 14.2389 44.7739 13.85 44.0899 13.6419C43.4059 13.4338 42.6736 13.4136 41.9648 13.5832C42.1306 12.7184 42.0343 11.8331 41.6889 11.0474C41.3435 10.2617 40.7658 9.6136 40.0342 9.19121C39.3026 8.76881 38.4525 8.59252 37.5994 8.68627C36.7462 8.78002 35.9313 9.13927 35.2653 9.71525C35.0578 9.01659 34.6741 8.39252 34.1519 7.90422C33.6297 7.41592 32.9869 7.08016 32.2865 6.92987C31.5861 6.77958 30.8522 6.81992 30.1567 7.04692C29.4612 7.27393 28.8281 7.67981 28.3193 8.22477C27.9222 8.64997 27.6096 9.14924 27.4 9.69284C27.1905 10.2364 27.0884 10.8133 27.0997 11.3889C27.1111 11.9646 27.2357 12.5274 27.4661 13.0437C27.6965 13.5601 28.0281 14.0195 28.441 14.3945L25.3669 19.719C25.1372 20.1168 25.0678 20.5854 25.1739 21.0216C25.2799 21.4579 25.5528 21.8262 25.9325 22.0454L35.953 27.8307C36.3327 28.0499 36.788 28.1021 37.2189 27.9758C37.6498 27.8496 38.0208 27.5551 38.2505 27.1573L41.3246 21.8328C41.8559 22.0029 42.4195 22.0604 42.9818 22.0018C43.5442 21.9431 44.0939 21.7697 44.5981 21.4917C45.1024 21.2137 45.5508 20.8368 45.9169 20.3835C46.2829 19.9303 46.5589 19.4099 46.7286 18.8533Z" stroke="#564538" stroke-width="3" stroke-linecap="round" stroke-linejoin="round"/>
<path d="M75.4766 42.7734L74.5625 48H60.7812L61.6719 42.7734H75.4766ZM68.4688 13.875L62.5625 48H56.4453L62.3281 13.875H68.4688ZM103.414 28.2188L102.523 33.9375C102.242 35.8438 101.758 37.6797 101.07 39.4453C100.398 41.1953 99.5 42.7578 98.375 44.1328C97.2656 45.5078 95.9062 46.5859 94.2969 47.3672C92.6875 48.1484 90.8203 48.5156 88.6953 48.4688C86.6641 48.4219 84.9688 47.9766 83.6094 47.1328C82.2656 46.2891 81.2188 45.1797 80.4688 43.8047C79.7344 42.4141 79.2578 40.8672 79.0391 39.1641C78.8359 37.4609 78.8438 35.7266 79.0625 33.9609L79.9297 28.2422C80.2266 26.3359 80.7109 24.4922 81.3828 22.7109C82.0547 20.9297 82.9531 19.3281 84.0781 17.9062C85.2188 16.4844 86.6016 15.3672 88.2266 14.5547C89.8516 13.7266 91.7344 13.3437 93.875 13.4062C95.9375 13.4531 97.6328 13.9141 98.9609 14.7891C100.305 15.6641 101.344 16.8203 102.078 18.2578C102.812 19.6797 103.273 21.2578 103.461 22.9922C103.648 24.7109 103.633 26.4531 103.414 28.2188ZM96.4766 33.9609L97.3203 28.125C97.4453 27.2656 97.5234 26.3125 97.5547 25.2656C97.6016 24.2031 97.5234 23.1797 97.3203 22.1953C97.1328 21.2109 96.7344 20.3906 96.125 19.7344C95.5312 19.0781 94.6328 18.7266 93.4297 18.6797C92.1328 18.6172 91.0391 18.875 90.1484 19.4531C89.2734 20.0312 88.5547 20.8047 87.9922 21.7734C87.4453 22.7422 87.0156 23.7891 86.7031 24.9141C86.4062 26.0391 86.1797 27.125 86.0234 28.1719L85.1797 33.9844C85.0703 34.8438 84.9922 35.7969 84.9453 36.8438C84.9141 37.8906 85.0078 38.8906 85.2266 39.8438C85.4453 40.7812 85.8516 41.5703 86.4453 42.2109C87.0547 42.8359 87.9531 43.1719 89.1406 43.2188C90.4219 43.2812 91.5 43.0391 92.375 42.4922C93.25 41.9297 93.9609 41.1875 94.5078 40.2656C95.0547 39.3281 95.4766 38.3047 95.7734 37.1953C96.0859 36.0859 96.3203 35.0078 96.4766 33.9609ZM130.367 30.2812L128.281 44.0391C127.375 45.1016 126.297 45.9609 125.047 46.6172C123.812 47.2734 122.5 47.75 121.109 48.0469C119.734 48.3438 118.367 48.4844 117.008 48.4688C114.93 48.4375 113.203 48.0078 111.828 47.1797C110.469 46.3516 109.406 45.25 108.641 43.875C107.891 42.4844 107.398 40.9297 107.164 39.2109C106.945 37.4922 106.953 35.7266 107.188 33.9141L108.102 27.9609C108.383 26.0391 108.852 24.2031 109.508 22.4531C110.164 20.6875 111.039 19.1172 112.133 17.7422C113.242 16.3672 114.594 15.2891 116.188 14.5078C117.781 13.7109 119.664 13.3359 121.836 13.3828C124.148 13.4453 126.008 13.9531 127.414 14.9062C128.82 15.8438 129.844 17.1484 130.484 18.8203C131.141 20.4766 131.477 22.3828 131.492 24.5391H125.516C125.531 23.5078 125.445 22.5547 125.258 21.6797C125.086 20.7891 124.711 20.0625 124.133 19.5C123.57 18.9375 122.695 18.6328 121.508 18.5859C120.211 18.5391 119.125 18.7969 118.25 19.3594C117.375 19.9062 116.664 20.6484 116.117 21.5859C115.57 22.5078 115.148 23.5312 114.852 24.6562C114.555 25.7656 114.336 26.8516 114.195 27.9141L113.328 33.9375C113.219 34.8594 113.141 35.8516 113.094 36.9141C113.062 37.9766 113.164 38.9844 113.398 39.9375C113.633 40.8906 114.078 41.6719 114.734 42.2812C115.391 42.8906 116.344 43.2031 117.594 43.2188C118.203 43.2188 118.766 43.1641 119.281 43.0547C119.797 42.9297 120.289 42.7578 120.758 42.5391C121.242 42.3203 121.727 42.0625 122.211 41.7656L123.5 35.1094H118.414L119.258 30.2812H130.367ZM158.82 28.2188L157.93 33.9375C157.648 35.8438 157.164 37.6797 156.477 39.4453C155.805 41.1953 154.906 42.7578 153.781 44.1328C152.672 45.5078 151.312 46.5859 149.703 47.3672C148.094 48.1484 146.227 48.5156 144.102 48.4688C142.07 48.4219 140.375 47.9766 139.016 47.1328C137.672 46.2891 136.625 45.1797 135.875 43.8047C135.141 42.4141 134.664 40.8672 134.445 39.1641C134.242 37.4609 134.25 35.7266 134.469 33.9609L135.336 28.2422C135.633 26.3359 136.117 24.4922 136.789 22.7109C137.461 20.9297 138.359 19.3281 139.484 17.9062C140.625 16.4844 142.008 15.3672 143.633 14.5547C145.258 13.7266 147.141 13.3437 149.281 13.4062C151.344 13.4531 153.039 13.9141 154.367 14.7891C155.711 15.6641 156.75 16.8203 157.484 18.2578C158.219 19.6797 158.68 21.2578 158.867 22.9922C159.055 24.7109 159.039 26.4531 158.82 28.2188ZM151.883 33.9609L152.727 28.125C152.852 27.2656 152.93 26.3125 152.961 25.2656C153.008 24.2031 152.93 23.1797 152.727 22.1953C152.539 21.2109 152.141 20.3906 151.531 19.7344C150.938 19.0781 150.039 18.7266 148.836 18.6797C147.539 18.6172 146.445 18.875 145.555 19.4531C144.68 20.0312 143.961 20.8047 143.398 21.7734C142.852 22.7422 142.422 23.7891 142.109 24.9141C141.812 26.0391 141.586 27.125 141.43 28.1719L140.586 33.9844C140.477 34.8438 140.398 35.7969 140.352 36.8438C140.32 37.8906 140.414 38.8906 140.633 39.8438C140.852 40.7812 141.258 41.5703 141.852 42.2109C142.461 42.8359 143.359 43.1719 144.547 43.2188C145.828 43.2812 146.906 43.0391 147.781 42.4922C148.656 41.9297 149.367 41.1875 149.914 40.2656C150.461 39.3281 150.883 38.3047 151.18 37.1953C151.492 36.0859 151.727 35.0078 151.883 33.9609Z" fill="#564538"/>
<path d="M177 40.7144L165 40.7144M174.6 33.4287L167.4 33.4287M174.6 48.0001L167.4 48.0001" stroke="#564538" stroke-width="3" stroke-linecap="round" stroke-linejoin="round"/>
</svg>
