<svg width="32" height="32" viewBox="0 0 32 32" fill="none" xmlns="http://www.w3.org/2000/svg">
<path d="M10.7333 3H21.9333C26.2 3 29.6667 6.46667 29.6667 10.7333V21.9333C29.6667 23.9843 28.8519 25.9513 27.4016 27.4016C25.9513 28.8519 23.9843 29.6667 21.9333 29.6667H10.7333C6.46667 29.6667 3 26.2 3 21.9333V10.7333C3 8.68233 3.81476 6.71532 5.26504 5.26504C6.71532 3.81476 8.68233 3 10.7333 3ZM10.4667 5.66667C9.19363 5.66667 7.97273 6.17238 7.07255 7.07255C6.17238 7.97273 5.66667 9.19363 5.66667 10.4667V22.2C5.66667 24.8533 7.81333 27 10.4667 27H22.2C23.473 27 24.6939 26.4943 25.5941 25.5941C26.4943 24.6939 27 23.473 27 22.2V10.4667C27 7.81333 24.8533 5.66667 22.2 5.66667H10.4667ZM23.3333 7.66667C23.7754 7.66667 24.1993 7.84226 24.5118 8.15482C24.8244 8.46738 25 8.89131 25 9.33333C25 9.77536 24.8244 10.1993 24.5118 10.5118C24.1993 10.8244 23.7754 11 23.3333 11C22.8913 11 22.4674 10.8244 22.1548 10.5118C21.8423 10.1993 21.6667 9.77536 21.6667 9.33333C21.6667 8.89131 21.8423 8.46738 22.1548 8.15482C22.4674 7.84226 22.8913 7.66667 23.3333 7.66667ZM16.3333 9.66667C18.1014 9.66667 19.7971 10.369 21.0474 11.6193C22.2976 12.8695 23 14.5652 23 16.3333C23 18.1014 22.2976 19.7971 21.0474 21.0474C19.7971 22.2976 18.1014 23 16.3333 23C14.5652 23 12.8695 22.2976 11.6193 21.0474C10.369 19.7971 9.66667 18.1014 9.66667 16.3333C9.66667 14.5652 10.369 12.8695 11.6193 11.6193C12.8695 10.369 14.5652 9.66667 16.3333 9.66667ZM16.3333 12.3333C15.2725 12.3333 14.2551 12.7548 13.5049 13.5049C12.7548 14.2551 12.3333 15.2725 12.3333 16.3333C12.3333 17.3942 12.7548 18.4116 13.5049 19.1618C14.2551 19.9119 15.2725 20.3333 16.3333 20.3333C17.3942 20.3333 18.4116 19.9119 19.1618 19.1618C19.9119 18.4116 20.3333 17.3942 20.3333 16.3333C20.3333 15.2725 19.9119 14.2551 19.1618 13.5049C18.4116 12.7548 17.3942 12.3333 16.3333 12.3333Z" fill="#564538"/>
</svg>
