<svg width="32" height="32" viewBox="0 0 32 32" fill="none" xmlns="http://www.w3.org/2000/svg">
<path d="M16 2.71973C8.66663 2.71973 2.66663 8.70639 2.66663 16.0797C2.66663 22.7464 7.54663 28.2797 13.92 29.2797V19.9464H10.5333V16.0797H13.92V13.1331C13.92 9.78639 15.9066 7.94639 18.96 7.94639C20.4133 7.94639 21.9333 8.19973 21.9333 8.19973V11.4931H20.2533C18.6 11.4931 18.08 12.5197 18.08 13.5731V16.0797H21.7866L21.1866 19.9464H18.08V29.2797C21.2219 28.7835 24.0829 27.1804 26.1465 24.7598C28.2102 22.3392 29.3404 19.2606 29.3333 16.0797C29.3333 8.70639 23.3333 2.71973 16 2.71973Z" fill="#564538"/>
</svg>
