<svg width="24" height="24" viewBox="0 0 24 24" fill="none" xmlns="http://www.w3.org/2000/svg">
<path d="M6.75 12C7.16421 12 7.5 11.6642 7.5 11.25C7.5 10.8358 7.16421 10.5 6.75 10.5C6.33579 10.5 6 10.8358 6 11.25C6 11.6642 6.33579 12 6.75 12Z" fill="#695243"/>
<path d="M10.5 15.375C10.2929 15.375 10.125 15.5429 10.125 15.75C10.125 15.9571 10.2929 16.125 10.5 16.125H13.5C13.7071 16.125 13.875 15.9571 13.875 15.75C13.875 15.5429 13.7071 15.375 13.5 15.375H10.5Z" fill="#695243"/>
<path d="M10.125 17.25C10.125 17.0429 10.2929 16.875 10.5 16.875H12C12.2071 16.875 12.375 17.0429 12.375 17.25C12.375 17.4571 12.2071 17.625 12 17.625H10.5C10.2929 17.625 10.125 17.4571 10.125 17.25Z" fill="#695243"/>
<path fill-rule="evenodd" clip-rule="evenodd" d="M8.25 4.875V7.5H5.25C4.00736 7.5 3 8.50736 3 9.75V15C3 16.2426 4.00736 17.25 5.25 17.25H7.5V19.125C7.5 19.7463 8.00368 20.25 8.625 20.25H15.375C15.9963 20.25 16.5 19.7463 16.5 19.125V17.25H18.75C19.9926 17.25 21 16.2426 21 15V9.75C21 8.50736 19.9926 7.5 18.75 7.5H15.75V4.875C15.75 4.25368 15.2463 3.75 14.625 3.75H9.375C8.75368 3.75 8.25 4.25368 8.25 4.875ZM9.75 5.25V7.5H14.25V5.25H9.75ZM5.25 9H18.75C19.1642 9 19.5 9.33579 19.5 9.75V15C19.5 15.4142 19.1642 15.75 18.75 15.75H16.5V13.875C16.5 13.2537 15.9963 12.75 15.375 12.75H8.625C8.00368 12.75 7.5 13.2537 7.5 13.875V15.75H5.25C4.83579 15.75 4.5 15.4142 4.5 15V9.75C4.5 9.33579 4.83579 9 5.25 9ZM9 18.75V14.25H15V18.75H9Z" fill="#695243"/>
</svg>
