<svg width="24" height="24" viewBox="0 0 24 24" fill="none" xmlns="http://www.w3.org/2000/svg">
<path fill-rule="evenodd" clip-rule="evenodd" d="M10.5148 8.55065C12.1407 8.45683 13.6313 9.45384 14.1653 10.9924L14.271 11.297C14.4408 11.7861 14.1819 12.3203 13.6928 12.4901C13.2036 12.6598 12.6695 12.401 12.4997 11.9118L12.3939 11.6072C12.1349 10.8607 11.4117 10.377 10.6228 10.4225C9.88682 10.465 9.18965 10.7668 8.65497 11.2744L6.21789 13.5878C4.94406 14.797 4.91776 16.8186 6.15971 18.0605C7.35811 19.2589 9.29367 19.2826 10.521 18.1139L11.3537 17.321C11.7287 16.964 12.3221 16.9785 12.6791 17.3535C13.0362 17.7284 13.0217 18.3218 12.6467 18.6789L11.814 19.4718C9.84967 21.3423 6.75188 21.3043 4.83388 19.3864C2.8462 17.3987 2.88829 14.1633 4.927 12.228L7.36408 9.91449C8.22016 9.10183 9.3364 8.61865 10.5148 8.55065Z" fill="#81654D"/>
<path fill-rule="evenodd" clip-rule="evenodd" d="M11.1335 12.8301C11.446 13.7801 12.2899 14.3564 13.0878 14.2623C13.5285 14.2103 13.761 14.1221 14.2077 13.89C14.7722 13.5966 15.2918 13.2057 15.755 12.7424L17.8171 10.6803C19.05 9.44745 19.05 7.44856 17.8171 6.21568C16.5971 4.99563 14.6235 4.98108 13.3856 6.18301L12.3533 7.18537C11.9818 7.54605 11.3883 7.5373 11.0276 7.16583C10.6669 6.79436 10.6757 6.20083 11.0471 5.84015L12.0795 4.83779C14.0526 2.922 17.1983 2.94519 19.143 4.88985C21.1081 6.85496 21.1081 10.041 19.143 12.0062L17.0808 14.0683C16.4958 14.6533 15.8234 15.1634 15.0724 15.5537C14.4971 15.8527 14.0424 16.0376 13.3075 16.1244C11.436 16.3451 9.87969 15.0192 9.35234 13.4159C9.19056 12.9241 9.45814 12.3942 9.94998 12.2324C10.4418 12.0706 10.9717 12.3382 11.1335 12.8301Z" fill="#81654D"/>
</svg>
