<svg width="24" height="24" viewBox="0 0 24 24" fill="none" xmlns="http://www.w3.org/2000/svg">
<path d="M9.57341 8.54153C9.30641 8.85821 8.83324 8.89848 8.51657 8.63148C8.19989 8.36447 8.15962 7.89131 8.42662 7.57464L12 3.33643L15.5734 7.57464C15.8404 7.89131 15.8001 8.36447 15.4835 8.63148C15.1668 8.89848 14.6936 8.85821 14.4266 8.54153L12.75 6.553V15.7499C12.75 16.1642 12.4142 16.4999 12 16.4999C11.5858 16.4999 11.25 16.1642 11.25 15.7499V6.553L9.57341 8.54153Z" fill="#695243"/>
<path d="M4.125 9.74995C3.50368 9.74995 3 10.2536 3 10.8749V19.8749C3 20.4963 3.50368 20.9999 4.125 20.9999H19.875C20.4963 20.9999 21 20.4963 21 19.8749V10.8749C21 10.2536 20.4963 9.74995 19.875 9.74995H16.5C16.0858 9.74995 15.75 10.0857 15.75 10.4999C15.75 10.9142 16.0858 11.2499 16.5 11.2499H19.5V19.4999H4.5V11.2499H7.5C7.91421 11.2499 8.25 10.9142 8.25 10.4999C8.25 10.0857 7.91421 9.74995 7.5 9.74995H4.125Z" fill="#695243"/>
</svg>
