<svg width="24" height="24" viewBox="0 0 24 24" fill="none" xmlns="http://www.w3.org/2000/svg">
<path d="M21.0566 7.18066C21.0659 7.39186 21.0659 7.59346 21.0659 7.80466C21.0752 14.2079 16.3707 21.5999 7.76744 21.5999C5.22999 21.5999 2.73885 20.8415 0.599609 19.4207C0.97004 19.4687 1.34047 19.4879 1.7109 19.4879C3.81309 19.4879 5.85972 18.7583 7.5174 17.4047C5.51707 17.3663 3.75753 16.0127 3.14632 14.0351C3.85014 14.1791 4.57248 14.1503 5.25777 13.9487C3.08149 13.5071 1.51642 11.5199 1.50716 9.20626C1.50716 9.18706 1.50716 9.16786 1.50716 9.14866C2.15542 9.52306 2.88702 9.73426 3.62788 9.75346C1.58125 8.33266 0.942258 5.50065 2.1832 3.28304C4.56322 6.31665 8.06378 8.15026 11.8237 8.35186C11.444 6.67185 11.9626 4.90545 13.1757 3.71505C15.0557 1.88144 18.0191 1.97744 19.7972 3.92625C20.8436 3.71505 21.8531 3.31184 22.7699 2.74544C22.418 3.86865 21.6864 4.81905 20.714 5.42385C21.6401 5.30865 22.5476 5.04945 23.3996 4.66545C22.7699 5.64465 21.9735 6.48945 21.0566 7.18066Z" fill="#81654D"/>
</svg>
