<svg width="24" height="24" viewBox="0 0 24 24" fill="none" xmlns="http://www.w3.org/2000/svg">
<path d="M12.75 10.5C12.75 10.0858 12.4142 9.75 12 9.75C11.5858 9.75 11.25 10.0858 11.25 10.5V13.2993C11.25 13.6755 11.438 14.0267 11.751 14.2354L13.834 15.624C14.1786 15.8538 14.6443 15.7607 14.874 15.416C15.1038 15.0714 15.0107 14.6057 14.666 14.376L12.75 13.0986V10.5Z" fill="#564538"/>
<path fill-rule="evenodd" clip-rule="evenodd" d="M11.25 4.5V6.03703C7.46001 6.41332 4.5 9.61099 4.5 13.5C4.5 17.6421 7.85786 21 12 21C16.1421 21 19.5 17.6421 19.5 13.5C19.5 9.61099 16.54 6.41332 12.75 6.03703V4.5H14.25C14.6642 4.5 15 4.16421 15 3.75C15 3.33579 14.6642 3 14.25 3H9.75C9.33579 3 9 3.33579 9 3.75C9 4.16421 9.33579 4.5 9.75 4.5H11.25ZM6 13.5C6 10.1863 8.68629 7.5 12 7.5C15.3137 7.5 18 10.1863 18 13.5C18 16.8137 15.3137 19.5 12 19.5C8.68629 19.5 6 16.8137 6 13.5Z" fill="#564538"/>
</svg>
