<svg width="208" height="81" viewBox="0 0 208 81" fill="none" xmlns="http://www.w3.org/2000/svg">
<g id="Union">
<mask id="path-1-inside-1_880_18252" fill="white">
<path fill-rule="evenodd" clip-rule="evenodd" d="M16 0C7.16344 0 0 7.16345 0 16V54.3382C0 63.1747 7.16344 70.3382 16 70.3382H96.1804L100.471 78.3824C101.976 81.2059 106.024 81.2059 107.529 78.3824L111.82 70.3382H192C200.837 70.3382 208 63.1747 208 54.3382V16C208 7.16345 200.837 0 192 0H16Z"/>
</mask>
<path fill-rule="evenodd" clip-rule="evenodd" d="M16 0C7.16344 0 0 7.16345 0 16V54.3382C0 63.1747 7.16344 70.3382 16 70.3382H96.1804L100.471 78.3824C101.976 81.2059 106.024 81.2059 107.529 78.3824L111.82 70.3382H192C200.837 70.3382 208 63.1747 208 54.3382V16C208 7.16345 200.837 0 192 0H16Z" fill="white"/>
<path d="M96.1804 70.3382L97.0627 69.8676L96.7804 69.3382H96.1804V70.3382ZM100.471 78.3824L101.353 77.9118L100.471 78.3824ZM107.529 78.3824L106.647 77.9118L107.529 78.3824ZM111.82 70.3382V69.3382H111.22L110.937 69.8676L111.82 70.3382ZM1 16C1 7.71574 7.71573 1 16 1V-1C6.61116 -1 -1 6.61117 -1 16H1ZM1 54.3382V16H-1V54.3382H1ZM16 69.3382C7.71573 69.3382 1 62.6224 1 54.3382H-1C-1 63.727 6.61116 71.3382 16 71.3382V69.3382ZM96.1804 69.3382H16V71.3382H96.1804V69.3382ZM101.353 77.9118L97.0627 69.8676L95.298 70.8088L99.5882 78.8529L101.353 77.9118ZM106.647 77.9118C105.518 80.0294 102.482 80.0294 101.353 77.9118L99.5882 78.8529C101.471 82.3824 106.529 82.3824 108.412 78.8529L106.647 77.9118ZM110.937 69.8676L106.647 77.9118L108.412 78.8529L112.702 70.8088L110.937 69.8676ZM192 69.3382H111.82V71.3382H192V69.3382ZM207 54.3382C207 62.6224 200.284 69.3382 192 69.3382V71.3382C201.389 71.3382 209 63.727 209 54.3382H207ZM207 16V54.3382H209V16H207ZM192 1C200.284 1 207 7.71573 207 16H209C209 6.61116 201.389 -1 192 -1V1ZM16 1H192V-1H16V1Z" fill="black" fill-opacity="0.5" mask="url(#path-1-inside-1_880_18252)"/>
</g>
</svg>
