<svg width="24" height="24" viewBox="0 0 24 24" fill="none" xmlns="http://www.w3.org/2000/svg">
<path fill-rule="evenodd" clip-rule="evenodd" d="M10.5 4.5C10.0858 4.5 9.75 4.83579 9.75 5.25H14.25C14.25 4.83579 13.9142 4.5 13.5 4.5H10.5ZM15.75 5.25C15.75 4.00736 14.7426 3 13.5 3H10.5C9.25736 3 8.25 4.00736 8.25 5.25H5.25C4.83579 5.25 4.5 5.58579 4.5 6C4.5 6.41421 4.83579 6.75 5.25 6.75H18.75C19.1642 6.75 19.5 6.41421 19.5 6C19.5 5.58579 19.1642 5.25 18.75 5.25H15.75Z" fill="#81654D"/>
<path fill-rule="evenodd" clip-rule="evenodd" d="M10.077 10.5015C10.4904 10.475 10.847 10.7887 10.8735 11.202L11.2485 17.052C11.275 17.4654 10.9613 17.822 10.548 17.8485C10.1346 17.875 9.77803 17.5613 9.75154 17.148L9.37654 11.298C9.35004 10.8846 9.66366 10.528 10.077 10.5015Z" fill="#81654D"/>
<path fill-rule="evenodd" clip-rule="evenodd" d="M13.923 10.5015C13.5096 10.475 13.153 10.7887 13.1265 11.202L12.7515 17.052C12.725 17.4654 13.0387 17.822 13.452 17.8485C13.8654 17.875 14.222 17.5613 14.2485 17.148L14.6235 11.298C14.65 10.8846 14.3363 10.528 13.923 10.5015Z" fill="#81654D"/>
<path fill-rule="evenodd" clip-rule="evenodd" d="M5.30848 8.76454C5.22455 8.09308 5.74811 7.5 6.42479 7.5H17.5752C18.2519 7.5 18.7755 8.09308 18.6915 8.76454L17.4085 19.0291C17.2677 20.155 16.3106 21 15.1758 21H8.82417C7.68945 21 6.73229 20.155 6.59155 19.0291L5.30848 8.76454ZM6.84959 9L8.07997 18.843C8.12688 19.2183 8.44593 19.5 8.82417 19.5H15.1758C15.5541 19.5 15.8731 19.2183 15.92 18.843L17.1504 9H6.84959Z" fill="#81654D"/>
</svg>
