<svg width="24" height="24" viewBox="0 0 24 24" fill="none" xmlns="http://www.w3.org/2000/svg">
<path fill-rule="evenodd" clip-rule="evenodd" d="M13.5 8.25C13.5 10.3211 11.8211 12 9.75 12C7.67893 12 6 10.3211 6 8.25C6 6.17893 7.67893 4.5 9.75 4.5C11.8211 4.5 13.5 6.17893 13.5 8.25ZM12 8.25C12 9.49264 10.9926 10.5 9.75 10.5C8.50736 10.5 7.5 9.49264 7.5 8.25C7.5 7.00736 8.50736 6 9.75 6C10.9926 6 12 7.00736 12 8.25Z" fill="#564538"/>
<path d="M4.5 18.75C4.5 18.1732 4.73863 17.2407 5.49104 16.4569C6.22522 15.6921 7.51611 15 9.75 15C11.9839 15 13.2748 15.6921 14.009 16.4569C14.7614 17.2407 15 18.1732 15 18.75C15 19.1642 15.3358 19.5 15.75 19.5C16.1642 19.5 16.5 19.1642 16.5 18.75C16.5 17.8268 16.1386 16.5093 15.091 15.4181C14.0252 14.3079 12.3161 13.5 9.75 13.5C7.18389 13.5 5.47478 14.3079 4.40896 15.4181C3.36137 16.5093 3 17.8268 3 18.75C3 19.1642 3.33579 19.5 3.75 19.5C4.16421 19.5 4.5 19.1642 4.5 18.75Z" fill="#564538"/>
<path fill-rule="evenodd" clip-rule="evenodd" d="M16.1842 12.2368C17.4922 12.2368 18.5526 11.1765 18.5526 9.86842C18.5526 8.56038 17.4922 7.5 16.1842 7.5C14.8761 7.5 13.8158 8.56038 13.8158 9.86842C13.8158 11.1765 14.8761 12.2368 16.1842 12.2368ZM16.1842 11.1118C16.8709 11.1118 17.4276 10.5551 17.4276 9.86842C17.4276 9.1817 16.8709 8.625 16.1842 8.625C15.4975 8.625 14.9408 9.1817 14.9408 9.86842C14.9408 10.5551 15.4975 11.1118 16.1842 11.1118Z" fill="#564538"/>
<path d="M15.3148 14.4742C15.571 14.4321 15.8596 14.4079 16.1842 14.4079C17.5339 14.4079 18.2721 14.8237 18.6747 15.2431C19.0955 15.6815 19.2236 16.1995 19.2236 16.5C19.2236 16.9142 19.5594 17.25 19.9736 17.25C20.3879 17.25 20.7236 16.9142 20.7236 16.5C20.7236 15.8532 20.4728 14.9502 19.7568 14.2043C19.0226 13.4395 17.8661 12.9079 16.1842 12.9079C15.7851 12.9079 15.415 12.9377 15.072 12.9939C14.6632 13.061 14.3862 13.4467 14.4533 13.8554C14.5203 14.2642 14.906 14.5412 15.3148 14.4742Z" fill="#564538"/>
</svg>
