<svg width="40" height="40" viewBox="0 0 40 40" fill="none" xmlns="http://www.w3.org/2000/svg">
<path fill-rule="evenodd" clip-rule="evenodd" d="M27.25 12.5C27.25 16.6421 23.8921 20 19.75 20C15.6079 20 12.25 16.6421 12.25 12.5C12.25 8.35786 15.6079 5 19.75 5C23.8921 5 27.25 8.35786 27.25 12.5ZM24.75 12.5C24.75 15.2614 22.5114 17.5 19.75 17.5C16.9886 17.5 14.75 15.2614 14.75 12.5C14.75 9.73858 16.9886 7.5 19.75 7.5C22.5114 7.5 24.75 9.73858 24.75 12.5Z" fill="#81654D"/>
<path d="M8.5 33.75C8.5 32.3491 9.03777 30.1599 10.6791 28.3362C12.2844 26.5525 15.0525 25 19.75 25C24.4475 25 27.2156 26.5525 28.8209 28.3362C30.4622 30.1599 31 32.3491 31 33.75C31 34.4404 31.5596 35 32.25 35C32.9404 35 33.5 34.4404 33.5 33.75C33.5 31.8175 32.7878 29.0067 30.6791 26.6638C28.5344 24.2808 25.0525 22.5 19.75 22.5C14.4475 22.5 10.9656 24.2808 8.82088 26.6638C6.71223 29.0067 6 31.8175 6 33.75C6 34.4404 6.55964 35 7.25 35C7.94036 35 8.5 34.4404 8.5 33.75Z" fill="#81654D"/>
</svg>
