<svg width="18" height="12" viewBox="0 0 18 12" fill="none" xmlns="http://www.w3.org/2000/svg">
<path fill-rule="evenodd" clip-rule="evenodd" d="M13.5 4.15139L16.5 2.15139V9.84861L13.5 7.84861V4.15139ZM16.3676 11.5631L13.4197 9.59786C13.1579 10.5503 12.2856 11.25 11.25 11.25H2.25C1.00736 11.25 0 10.2426 0 9V3C0 1.75736 1.00736 0.75 2.25 0.75H11.25C12.2856 0.75 13.1579 1.44969 13.4197 2.40214L16.3676 0.436902C17.0653 -0.0282871 18 0.471926 18 1.31055V10.6894C18 11.5281 17.0653 12.0283 16.3676 11.5631ZM1.5 3C1.5 2.58579 1.83579 2.25 2.25 2.25H11.25C11.6642 2.25 12 2.58579 12 3V9C12 9.41421 11.6642 9.75 11.25 9.75H2.25C1.83579 9.75 1.5 9.41421 1.5 9V3ZM3.75 5.24988C4.16421 5.24988 4.5 4.91409 4.5 4.49988C4.5 4.08566 4.16421 3.74988 3.75 3.74988C3.33579 3.74988 3 4.08566 3 4.49988C3 4.91409 3.33579 5.24988 3.75 5.24988Z" fill="#FEFEFE"/>
</svg>
