<svg width="24" height="24" viewBox="0 0 24 24" fill="none" xmlns="http://www.w3.org/2000/svg">
<path fill-rule="evenodd" clip-rule="evenodd" d="M11.4238 7.00377C11.7576 6.72563 12.2424 6.72563 12.5762 7.00377L15.9278 9.79681C16.2258 10.0451 16.664 10.0253 16.9383 9.75097L19.4636 7.22565C20.0306 6.65868 21 7.06023 21 7.86204V16.3499C21 16.847 20.5971 17.2499 20.1 17.2499H3.9C3.40294 17.2499 3 16.847 3 16.3499V7.86204C3 7.06023 3.96942 6.65867 4.5364 7.22565L7.06172 9.75097C7.33601 10.0253 7.77419 10.0451 8.07219 9.79681L11.4238 7.00377ZM12 8.47619L9.03246 10.9491C8.13848 11.6941 6.82392 11.6345 6.00106 10.8116L4.5 9.31057V15.7499H19.5V9.31057L17.9989 10.8116C17.1761 11.6345 15.8615 11.6941 14.9675 10.9491L12 8.47619Z" fill="#FEFEFE"/>
</svg>
