<svg width="24" height="24" viewBox="0 0 24 24" fill="none" xmlns="http://www.w3.org/2000/svg">
<path fill-rule="evenodd" clip-rule="evenodd" d="M11.4238 7.00401C11.7576 6.72588 12.2424 6.72587 12.5762 7.00401L15.9278 9.79705C16.2258 10.0454 16.664 10.0255 16.9383 9.75121L19.4636 7.22589C20.0306 6.65892 21 7.06047 21 7.86229V16.3502C21 16.8472 20.5971 17.2502 20.1 17.2502H3.9C3.40294 17.2502 3 16.8472 3 16.3502V7.86229C3 7.06048 3.96942 6.65892 4.5364 7.22589L7.06172 9.75121C7.33601 10.0255 7.77419 10.0454 8.07219 9.79705L11.4238 7.00401ZM12 8.47644L9.03246 10.9494C8.13848 11.6944 6.82392 11.6347 6.00106 10.8119L4.5 9.31081V15.7502H19.5V9.31081L17.9989 10.8119C17.1761 11.6347 15.8615 11.6944 14.9675 10.9494L12 8.47644Z" fill="#4C9B58"/>
</svg>
