<svg width="24" height="24" viewBox="0 0 24 24" fill="none" xmlns="http://www.w3.org/2000/svg">
<path d="M3.75 6C3.75 5.58579 4.08579 5.25 4.5 5.25H19.5C19.9142 5.25 20.25 5.58579 20.25 6C20.25 6.41421 19.9142 6.75 19.5 6.75H4.5C4.08579 6.75 3.75 6.41421 3.75 6Z" fill="#6A4F3E"/>
<path d="M3.75 18C3.75 17.5858 4.08579 17.25 4.5 17.25H19.5C19.9142 17.25 20.25 17.5858 20.25 18C20.25 18.4142 19.9142 18.75 19.5 18.75H4.5C4.08579 18.75 3.75 18.4142 3.75 18Z" fill="#6A4F3E"/>
<path d="M4.5 11.25C4.08579 11.25 3.75 11.5858 3.75 12C3.75 12.4142 4.08579 12.75 4.5 12.75H19.5C19.9142 12.75 20.25 12.4142 20.25 12C20.25 11.5858 19.9142 11.25 19.5 11.25H4.5Z" fill="#6A4F3E"/>
</svg>
