<svg width="24" height="24" viewBox="0 0 24 24" fill="none" xmlns="http://www.w3.org/2000/svg">
<path fill-rule="evenodd" clip-rule="evenodd" d="M19.4254 5.60798C21.5254 7.62045 21.5247 10.8834 19.4239 12.8951L12 19.9999L4.57609 12.8951C2.47524 10.8834 2.47455 7.62044 4.57454 5.60797C6.39404 3.78843 8.74192 3.91181 10.9581 5.90865C11.3096 6.22534 11.6577 6.58916 11.9999 6.99982C12.3422 6.58916 12.6903 6.22534 13.0418 5.90865C15.258 3.91181 17.6059 3.78844 19.4254 5.60798ZM12 17.9236L18.3864 11.8117C19.8707 10.3904 19.8712 8.11273 18.3876 6.69096L18.376 6.67992L18.3647 6.66863C17.6196 5.92345 16.8736 5.72646 16.1321 5.86341C15.315 6.01432 14.2701 6.61874 13.1523 7.9601L11.9999 9.34289L10.8476 7.9601C9.72981 6.61873 8.68487 6.01431 7.86783 5.86341C7.12636 5.72646 6.38037 5.92344 5.63521 6.66862L5.62392 6.67991L5.61239 6.69096C4.12889 8.11263 4.12925 10.3901 5.61321 11.8114C5.6133 11.8115 5.6134 11.8116 5.6135 11.8116L12 17.9236Z" fill="#695243"/>
</svg>
