<svg width="24" height="24" viewBox="0 0 24 24" fill="none" xmlns="http://www.w3.org/2000/svg">
<path d="M19.6957 10.5302C19.9324 10.052 20.0202 9.51369 19.9475 8.98503C19.8749 8.45637 19.6452 7.96169 19.2882 7.56503C18.9313 7.16838 18.4635 6.88801 17.9454 6.76023C17.4273 6.63246 16.8827 6.66316 16.3823 6.84835C15.939 6.43112 15.383 6.15312 14.7832 6.04881C14.7184 6.02848 14.6593 5.99324 14.6105 5.94591C14.5618 5.89858 14.5249 5.84049 14.5027 5.77631C14.3189 5.2568 13.9786 4.80703 13.5287 4.48892C13.0787 4.17081 12.5412 4 11.9901 4C11.4391 4 10.9016 4.17081 10.4516 4.48892C10.0017 4.80703 9.66137 5.2568 9.47759 5.77631C9.45537 5.83752 9.41999 5.89312 9.37394 5.93917C9.32789 5.98522 9.2723 6.0206 9.21108 6.04282C8.60691 6.14625 8.04619 6.42418 7.59801 6.84236C7.09679 6.65567 6.55098 6.62411 6.03158 6.75179C5.51218 6.87948 5.04321 7.16049 4.68566 7.55828C4.32811 7.95608 4.09853 8.45225 4.02676 8.98228C3.955 9.51231 4.04437 10.0517 4.28327 10.5302C4.33953 10.6639 4.36661 10.8081 4.36271 10.9531C4.3588 11.0981 4.32399 11.2406 4.26061 11.3711C3.98933 12.014 3.92797 12.7261 4.08531 13.4059C4.24264 14.0858 4.61062 14.6985 5.13677 15.1569C5.2034 15.2099 5.26681 15.2669 5.32666 15.3274C5.33096 15.8857 5.47493 16.4339 5.74546 16.9223C6.01598 17.4106 6.40445 17.8234 6.87544 18.1231C7.34642 18.4228 7.88494 18.5998 8.44187 18.638C8.99881 18.6761 9.55644 18.5743 10.0639 18.3417C12.3133 20.5578 11.671 20.5478 13.915 18.3417C14.4224 18.5754 14.9803 18.6781 15.5377 18.6404C16.095 18.6027 16.634 18.4258 17.1053 18.1259C17.5766 17.826 17.9652 17.4127 18.2355 16.9238C18.5057 16.4349 18.649 15.8861 18.6523 15.3274C18.6649 15.3081 18.8488 15.1595 18.8488 15.1595C19.3743 14.7001 19.7412 14.0865 19.8973 13.4062C20.0535 12.7259 19.9908 12.0137 19.7183 11.3711C19.655 11.2406 19.6202 11.0981 19.6162 10.9531C19.6123 10.8081 19.6394 10.6639 19.6957 10.5302ZM8.65807 17.3263C8.12794 17.3263 7.61953 17.1157 7.24467 16.7408C6.86982 16.366 6.65922 15.8576 6.65922 15.3274C6.65409 15.0936 6.59229 14.8645 6.47915 14.6598C6.366 14.4551 6.20487 14.2809 6.0096 14.1521C5.79462 13.9681 5.62221 13.7396 5.50429 13.4823C5.38637 13.2251 5.32576 12.9453 5.32666 12.6623C5.4266 11.7249 6.01293 10.7967 5.46858 9.92124C5.36368 9.70564 5.31889 9.46572 5.33895 9.22679C5.359 8.98786 5.44315 8.75877 5.58252 8.56367C5.72189 8.36856 5.91131 8.21468 6.13083 8.11823C6.35035 8.02179 6.59182 7.98636 6.82979 8.01568C6.65915 8.49611 6.61592 9.01256 6.70431 9.51467C6.79271 10.0168 7.00971 10.4874 7.33417 10.8807C7.42176 10.9902 7.48092 11.1196 7.50638 11.2575C7.53184 11.3953 7.5228 11.5374 7.48008 11.6709C7.27808 12.3276 7.28275 13.0306 7.49344 13.6846C7.70414 14.3386 8.11069 14.9121 8.65807 15.3274C8.65849 16.0065 8.86785 16.669 9.25772 17.225C9.06414 17.289 8.86194 17.3232 8.65807 17.3263ZM13.9883 15.3274C13.9866 15.7394 13.8577 16.1407 13.6191 16.4766C13.3806 16.8124 13.0441 17.0664 12.6558 17.2037V9.9972C12.6558 9.82049 12.5856 9.65102 12.4606 9.52607C12.3357 9.40111 12.1662 9.33092 11.9895 9.33092C11.8128 9.33092 11.6433 9.40111 11.5183 9.52607C11.3934 9.65102 11.3232 9.82049 11.3232 9.9972V17.2037C10.9348 17.0664 10.5983 16.8124 10.3598 16.4766C10.1213 16.1407 9.99234 15.7394 9.99063 15.3274C9.97369 15.0962 9.90685 14.8715 9.7947 14.6686C9.68256 14.4657 9.52777 14.2895 9.34101 14.1521C9.05009 13.9023 8.83893 13.5726 8.73375 13.2039C8.62857 12.8352 8.63399 12.4437 8.74935 12.078C8.86149 11.7327 8.88499 11.3648 8.81769 11.008C8.7504 10.6513 8.59446 10.3172 8.36424 10.0365C8.21731 9.858 8.10983 9.65043 8.04885 9.42742C7.98787 9.20441 7.97478 8.97102 8.01044 8.74259C8.07265 8.39073 8.24438 8.06749 8.50114 7.81899C8.7579 7.57048 9.08657 7.40941 9.44028 7.35872C9.7344 7.29591 10.0075 7.15883 10.2337 6.96056C10.4598 6.76229 10.6315 6.50942 10.7322 6.22605C10.8237 5.9656 10.9938 5.73999 11.219 5.58039C11.4442 5.42078 11.7134 5.33506 11.9895 5.33506C12.2655 5.33506 12.5347 5.42078 12.76 5.58039C12.9852 5.73999 13.1553 5.9656 13.2467 6.22605C13.3472 6.51035 13.5189 6.76413 13.7455 6.96314C13.972 7.16215 14.2458 7.29972 14.5407 7.36272C14.894 7.41356 15.2223 7.57465 15.4787 7.82302C15.735 8.0714 15.9065 8.39438 15.9685 8.74592C16.0042 8.97435 15.9911 9.20774 15.9301 9.43075C15.8691 9.65376 15.7616 9.86134 15.6147 10.0398C14.9165 10.7921 15.1696 11.7602 15.3209 12.6623C15.3216 12.9461 15.2606 13.2266 15.1421 13.4844C15.0236 13.7422 14.8504 13.9712 14.6346 14.1555C14.4486 14.2925 14.2945 14.4683 14.183 14.6706C14.0714 14.8729 14.005 15.097 13.9883 15.3274ZM17.9254 14.1881C17.7404 14.3155 17.5888 14.4855 17.4834 14.6838C17.378 14.8821 17.3218 15.1029 17.3197 15.3274C17.3183 15.6401 17.2436 15.948 17.1016 16.2265C16.9596 16.505 16.7543 16.7463 16.5021 16.9311C16.2499 17.1158 15.9579 17.2388 15.6495 17.2902C15.3412 17.3416 15.025 17.32 14.7266 17.227C15.11 16.683 15.3156 16.0336 15.3149 15.3681C15.8595 14.9413 16.2634 14.3609 16.4745 13.702C16.6856 13.0431 16.6941 12.336 16.4989 11.6722C16.4561 11.5387 16.4471 11.3967 16.4726 11.2588C16.498 11.1209 16.5572 10.9915 16.6448 10.882C16.9692 10.4887 17.1861 10.0181 17.2745 9.51598C17.3629 9.01388 17.3197 8.49745 17.1492 8.01701C17.3872 7.98775 17.6287 8.02326 17.8482 8.11979C18.0677 8.21632 18.2571 8.37029 18.3964 8.56547C18.5357 8.76066 18.6197 8.98981 18.6397 9.22878C18.6596 9.46775 18.6147 9.70767 18.5097 9.92324C17.966 10.7967 18.5523 11.7242 18.6523 12.6623C18.6512 12.9545 18.5855 13.2429 18.4598 13.5067C18.3341 13.7705 18.1516 14.0032 17.9254 14.1881Z" fill="#695243"/>
</svg>
