<svg width="25" height="24" viewBox="0 0 25 24" fill="none" xmlns="http://www.w3.org/2000/svg">
<g id="Log In">
<g id="Icon Shape">
<path d="M19.25 3C20.4926 3 21.5 4.00736 21.5 5.25V18.75C21.5 19.9926 20.4926 21 19.25 21H11.375C10.1324 21 9.12501 19.9926 9.12501 18.75V18C9.12501 17.5858 9.46079 17.25 9.87501 17.25C10.2892 17.25 10.625 17.5858 10.625 18V18.75C10.625 19.1642 10.9608 19.5 11.375 19.5H19.25C19.6642 19.5 20 19.1642 20 18.75V5.25C20 4.83579 19.6642 4.5 19.25 4.5H11.375C10.9608 4.5 10.625 4.83579 10.625 5.25V6C10.625 6.41421 10.2892 6.75 9.87501 6.75C9.46079 6.75 9.12501 6.41421 9.12501 6V5.25C9.12501 4.00736 10.1324 3 11.375 3H19.25Z" fill="#695243"/>
<path d="M12.7517 9.56056C12.4421 9.28538 12.4143 8.81132 12.6894 8.50173C12.9646 8.19215 13.4387 8.16426 13.7483 8.43945L17.7539 12L13.7483 15.5606C13.4387 15.8358 12.9646 15.8079 12.6894 15.4983C12.4143 15.1887 12.4421 14.7146 12.7517 14.4395L14.6523 12.75H5C4.58579 12.75 4.25 12.4142 4.25 12C4.25 11.5858 4.58579 11.25 5 11.25H14.6523L12.7517 9.56056Z" fill="#695243"/>
</g>
</g>
</svg>
