<svg width="49" height="48" viewBox="0 0 49 48" fill="none" xmlns="http://www.w3.org/2000/svg">
<g id="LOGO">
<path id="Vector" d="M2.5 27.7143H30.25L29.8439 31.2447C29.6619 32.8292 28.9059 34.2912 27.7198 35.3524C26.5337 36.4136 25.0003 37 23.4115 37H9.33852C7.74969 37 6.21631 36.4136 5.03021 35.3524C3.84412 34.2912 3.08811 32.8292 2.90608 31.2447L2.5 27.7143Z" fill="#695243"/>
<path id="Vector_2" d="M30.25 27.7143L39.5 24M30.25 27.7143H2.5L2.90608 31.2447C3.08811 32.8292 3.84412 34.2912 5.03021 35.3524C6.21631 36.4136 7.74969 37 9.33852 37H23.4115C25.0003 37 26.5337 36.4136 27.7198 35.3524C28.9059 34.2912 29.6619 32.8292 29.8439 31.2447L30.25 27.7143Z" stroke="#695243" stroke-width="3" stroke-linecap="round" stroke-linejoin="round"/>
<path id="Vector_3" d="M22.5 42.5C23.8807 42.5 25 41.3807 25 40C25 38.6193 23.8807 37.5 22.5 37.5C21.1193 37.5 20 38.6193 20 40C20 41.3807 21.1193 42.5 22.5 42.5Z" stroke="#564538" stroke-width="3"/>
<path id="Vector_4" d="M11.5 42.5C12.8807 42.5 14 41.3807 14 40C14 38.6193 12.8807 37.5 11.5 37.5C10.1193 37.5 9 38.6193 9 40C9 41.3807 10.1193 42.5 11.5 42.5Z" stroke="#564538" stroke-width="3"/>
<path id="Vector_5" d="M35.2152 16.8132C35.3862 16.2529 35.4136 15.6627 35.2949 15.1002C35.1761 14.5378 34.9152 14.0226 34.5378 13.6051C34.1604 13.1875 33.6794 12.882 33.142 12.7185C32.6046 12.555 32.0292 12.5391 31.4722 12.6724C31.6025 11.9929 31.5268 11.2973 31.2555 10.6799C30.9841 10.0626 30.5302 9.55341 29.9553 9.22152C29.3805 8.88964 28.7126 8.75113 28.0423 8.82479C27.3719 8.89845 26.7317 9.18072 26.2084 9.63327C26.0453 9.08433 25.7438 8.59398 25.3335 8.21032C24.9232 7.82665 24.4182 7.56285 23.8678 7.44476C23.3175 7.32667 22.7409 7.35837 22.1945 7.53673C21.648 7.71509 21.1506 8.034 20.7508 8.46218C20.4388 8.79626 20.1931 9.18855 20.0285 9.61566C19.8639 10.0428 19.7836 10.496 19.7925 10.9483C19.8015 11.4006 19.8994 11.8428 20.0804 12.2485C20.2615 12.6542 20.522 13.0151 20.8464 13.3098L18.431 17.4934C18.2506 17.8059 18.196 18.1741 18.2794 18.5169C18.3627 18.8596 18.5771 19.149 18.8754 19.3212L26.7487 23.8669C27.047 24.0391 27.4048 24.0801 27.7433 23.9809C28.0819 23.8817 28.3734 23.6503 28.5539 23.3378L30.9692 19.1542C31.3867 19.2879 31.8295 19.333 32.2714 19.287C32.7132 19.2409 33.1451 19.1046 33.5413 18.8862C33.9375 18.6677 34.2899 18.3716 34.5774 18.0155C34.865 17.6594 35.0819 17.2505 35.2152 16.8132Z" stroke="#564538" stroke-width="3" stroke-linecap="round" stroke-linejoin="round"/>
<path id="Vector_6" d="M46.5 35.5H37.5M44.7 31H39.3M44.7 40H39.3" stroke="#564538" stroke-width="3" stroke-linecap="round" stroke-linejoin="round"/>
</g>
</svg>
