<svg width="24" height="24" viewBox="0 0 24 24" fill="none" xmlns="http://www.w3.org/2000/svg">
<path fill-rule="evenodd" clip-rule="evenodd" d="M12.7171 13.4993L13.802 12.4143C14.5343 11.6821 15.7215 11.6821 16.4537 12.4143L20.166 16.1266C20.8982 16.8589 20.8982 18.0461 20.166 18.7783L19.4026 19.5417C19.1696 19.7747 18.8765 19.9283 18.5652 19.9918C18.2774 20.0506 17.9967 20.121 17.6828 20.1998L17.675 20.2017C17.369 20.2785 17.0263 20.3644 16.6732 20.4337C15.9488 20.5761 15.1267 20.6611 14.1848 20.5065C12.3069 20.1984 10.312 19.0006 7.70324 16.3918C5.09445 13.783 3.89666 11.7882 3.58852 9.91028C3.43397 8.96839 3.51897 8.14628 3.66131 7.42185C3.73069 7.06875 3.81657 6.72608 3.89334 6.42002L3.89526 6.41233C3.97399 6.09844 4.04442 5.81765 4.10321 5.52982C4.16679 5.21854 4.32033 4.92548 4.55337 4.69244L5.31675 3.92906C6.04899 3.19682 7.23617 3.19682 7.9684 3.92906L11.6807 7.64137C12.4129 8.3736 12.4129 9.56079 11.6807 10.293L10.5957 11.378C10.6847 11.704 10.9165 12.1805 11.4156 12.6795C11.9146 13.1785 12.3911 13.4104 12.7171 13.4993ZM18.693 18.1299L14.4504 13.8873L14.8627 13.475C15.0091 13.3286 15.2466 13.3286 15.393 13.475L19.1053 17.1873C19.2518 17.3338 19.2518 17.5712 19.1053 17.7176L18.693 18.1299ZM17.332 18.7413C17.5728 18.6809 17.8165 18.6198 18.0668 18.5644L14.0242 14.5218C13.7239 15.3361 11.9064 15.2917 10.3549 13.7402C8.80337 12.1886 8.75897 10.3712 9.57328 10.0708L5.53065 6.02822C5.47528 6.2786 5.41415 6.52231 5.35377 6.76303C4.80569 8.94796 4.31939 10.8866 8.7639 15.3312C13.2084 19.7757 15.1471 19.2894 17.332 18.7413ZM5.96511 5.40202L10.2078 9.64466L10.6201 9.23236C10.7665 9.08591 10.7665 8.84847 10.6201 8.70203L6.90774 4.98972C6.7613 4.84327 6.52386 4.84327 6.37741 4.98972L5.96511 5.40202Z" fill="#564538"/>
</svg>
