<svg width="24" height="24" viewBox="0 0 24 24" fill="none" xmlns="http://www.w3.org/2000/svg">
<path fill-rule="evenodd" clip-rule="evenodd" d="M9.60673 3C8.77042 3 8.22649 3.8801 8.6005 4.62812L8.98009 5.38731L8.2836 11.6557L6.74996 13.1893C5.80502 14.1343 6.47426 15.75 7.81062 15.75H11.25V20.25C11.25 20.6642 11.5858 21 12 21C12.4142 21 12.75 20.6642 12.75 20.25V15.75H16.1893C17.5257 15.75 18.1949 14.1343 17.25 13.1893L15.7163 11.6557L15.0198 5.38731L15.3994 4.62812C15.7734 3.8801 15.2295 3 14.3932 3H9.60673ZM12.0007 14.25H16.1893L14.6557 12.7164C14.4148 12.4755 14.2631 12.1599 14.2255 11.8213L13.529 5.55295C13.4971 5.26558 13.5489 4.9751 13.6782 4.71649L13.7864 4.5H10.2135L10.3217 4.71649C10.451 4.9751 10.5028 5.26558 10.4709 5.55295L9.77443 11.8213C9.73682 12.1599 9.58511 12.4755 9.34426 12.7164L7.81062 14.25L12.0007 14.25Z" fill="#695243"/>
</svg>
