<svg width="32" height="32" viewBox="0 0 32 32" fill="none" xmlns="http://www.w3.org/2000/svg">
<path d="M30.6666 12.9466C30.7326 11.0382 30.3152 9.144 29.4533 7.43998C28.8685 6.74078 28.0569 6.26893 27.16 6.10665C23.45 5.77001 19.7247 5.63204 16 5.69331C12.2888 5.62926 8.5769 5.76278 4.87995 6.09331C4.14905 6.22627 3.47265 6.5691 2.93329 7.07998C1.73329 8.18665 1.59995 10.08 1.46662 11.68C1.27317 14.5567 1.27317 17.4432 1.46662 20.32C1.50519 21.2205 1.63928 22.1144 1.86662 22.9866C2.02739 23.6601 2.35265 24.2831 2.81329 24.8C3.35631 25.3379 4.04847 25.7003 4.79995 25.84C7.67451 26.1948 10.5709 26.3419 13.4666 26.28C18.1333 26.3466 22.2266 26.28 27.0666 25.9066C27.8366 25.7755 28.5482 25.4127 29.1066 24.8666C29.4799 24.4932 29.7587 24.0361 29.92 23.5333C30.3968 22.0701 30.631 20.5388 30.6133 19C30.6666 18.2533 30.6666 13.7466 30.6666 12.9466ZM12.9866 19.8V11.5466L20.88 15.6933C18.6666 16.92 15.7466 18.3066 12.9866 19.8Z" fill="#564538"/>
</svg>
