<svg width="24" height="24" viewBox="0 0 24 24" fill="none" xmlns="http://www.w3.org/2000/svg">
<g id="Video Camera">
<path id="Icon Shape" fill-rule="evenodd" clip-rule="evenodd" d="M16.5 10.1514L19.5 8.15139V15.8486L16.5 13.8486V10.1514ZM19.3676 17.5631L16.4197 15.5979C16.1579 16.5503 15.2856 17.25 14.25 17.25H5.25C4.00736 17.25 3 16.2426 3 15V9C3 7.75736 4.00736 6.75 5.25 6.75H14.25C15.2856 6.75 16.1579 7.44969 16.4197 8.40214L19.3676 6.4369C20.0653 5.97171 21 6.47193 21 7.31055V16.6894C21 17.5281 20.0653 18.0283 19.3676 17.5631ZM4.5 9C4.5 8.58579 4.83579 8.25 5.25 8.25H14.25C14.6642 8.25 15 8.58579 15 9V15C15 15.4142 14.6642 15.75 14.25 15.75H5.25C4.83579 15.75 4.5 15.4142 4.5 15V9ZM6.75 11.2499C7.16421 11.2499 7.5 10.9141 7.5 10.4999C7.5 10.0857 7.16421 9.74988 6.75 9.74988C6.33579 9.74988 6 10.0857 6 10.4999C6 10.9141 6.33579 11.2499 6.75 11.2499Z" fill="#FEFEFE"/>
</g>
</svg>
