<svg width="24" height="24" viewBox="0 0 24 24" fill="none" xmlns="http://www.w3.org/2000/svg">
<path fill-rule="evenodd" clip-rule="evenodd" d="M15.2465 16.3072C13.9536 17.3652 12.301 18 10.5 18C6.35786 18 3 14.6421 3 10.5C3 6.35786 6.35786 3 10.5 3C14.6421 3 18 6.35786 18 10.5C18 12.301 17.3652 13.9536 16.3072 15.2465L20.7803 19.7197C21.0732 20.0126 21.0732 20.4874 20.7803 20.7803C20.4874 21.0732 20.0126 21.0732 19.7197 20.7803L15.2465 16.3072ZM16.5 10.5C16.5 13.8137 13.8137 16.5 10.5 16.5C7.18629 16.5 4.5 13.8137 4.5 10.5C4.5 7.18629 7.18629 4.5 10.5 4.5C13.8137 4.5 16.5 7.18629 16.5 10.5Z" fill="#6A4F3E"/>
</svg>
