<svg width="24" height="24" viewBox="0 0 24 24" fill="none" xmlns="http://www.w3.org/2000/svg">
<g id="Change">
<path id="Icon Shape" d="M17.2369 15.3366C18.8937 12.4669 17.9105 8.79734 15.0407 7.14049C12.1743 5.48554 8.5099 6.46462 6.85032 9.32672C6.46564 10.0465 6.03646 11.3297 6.049 12.7661C6.06143 14.1894 6.505 15.7421 7.84174 17.0788C8.13463 17.3717 8.13463 17.8466 7.84174 18.1395C7.54884 18.4324 7.07397 18.4324 6.78108 18.1395C5.11781 16.4762 4.56427 14.5215 4.54906 12.7792C4.53402 11.0564 5.04266 9.52108 5.53452 8.60643L5.53988 8.59645L5.54555 8.58664C7.61662 4.99945 12.2035 3.77038 15.7907 5.84145C19.3779 7.91252 20.607 12.4994 18.5359 16.0866C17.9098 17.1712 17.0528 18.0407 16.0632 18.6683L18.3644 18.6965C18.7786 18.7016 19.1103 19.0415 19.1052 19.4556C19.1001 19.8698 18.7602 20.2015 18.3461 20.1964L12.7905 20.1283L14.2078 14.684C14.3122 14.2831 14.7217 14.0427 15.1226 14.1471C15.5234 14.2514 15.7638 14.661 15.6594 15.0618L15.0115 17.5508C15.9077 17.0415 16.6839 16.2945 17.2369 15.3366Z" fill="#3F4643"/>
</g>
</svg>
